<svg width="114" height="66" viewBox="0 0 114 66" fill="none" xmlns="http://www.w3.org/2000/svg">
<g clip-path="url(#clip0_3_2910)">
<g clip-path="url(#clip1_3_2910)">
<g clip-path="url(#clip2_3_2910)">
<mask id="mask0_3_2910" style="mask-type:luminance" maskUnits="userSpaceOnUse" x="0" y="0" width="114" height="65">
<path d="M114 0.580078H0V64.7812H114V0.580078Z" fill="white"/>
</mask>
<g mask="url(#mask0_3_2910)">
<path d="M93.1395 64.7808H15.7068C15.2117 64.7808 14.8066 64.3757 14.8066 63.8807V50.1989C14.8066 49.7038 15.2117 49.2988 15.7068 49.2988H93.1395C93.6346 49.2988 94.0396 49.7038 94.0396 50.1989V63.8807C94.0396 64.3982 93.6346 64.7808 93.1395 64.7808Z" fill="#A6A4A1"/>
<path d="M88.0986 32.2639C87.401 30.4862 86.4334 28.8885 85.1957 27.4483C83.9581 26.0081 82.4504 24.8605 80.6951 24.0053C78.9399 23.1502 77.0046 22.7227 74.8668 22.7227C72.7741 22.7227 70.8388 23.1277 69.0836 23.9378C67.3283 24.7479 65.8206 25.8506 64.538 27.2458C63.2553 28.641 62.2427 30.2162 61.5226 32.0164C60.78 33.7941 60.4199 35.6619 60.4199 37.6197C60.4199 39.4874 60.7575 41.3326 61.4551 43.1104C62.1527 44.8881 63.1203 46.4858 64.3805 47.926C65.6406 49.3437 67.1483 50.4689 68.9036 51.3015C70.6588 52.1341 72.6165 52.5391 74.7543 52.5391C76.8246 52.5391 78.7374 52.1341 80.4926 51.3465C82.2478 50.5364 83.7555 49.4562 85.0382 48.061C86.3209 46.6659 87.311 45.0681 88.0311 43.2904C88.7512 41.5127 89.1112 39.6449 89.1112 37.7097C89.1337 35.8419 88.7737 34.0192 88.0986 32.2639ZM80.9202 40.3425C80.6276 41.2426 80.2226 42.0527 79.66 42.7953C79.1199 43.5154 78.4223 44.1005 77.5897 44.5506C76.7571 44.9781 75.812 45.2032 74.7768 45.2032C73.7417 45.2032 72.8191 45.0006 72.009 44.5731C71.1989 44.168 70.5013 43.6055 69.9387 42.8854C69.3761 42.1878 68.9486 41.3777 68.656 40.455C68.3635 39.5549 68.206 38.6098 68.206 37.6422C68.206 36.7195 68.341 35.7969 68.6335 34.9193C68.9261 34.0417 69.3311 33.2316 69.8937 32.5115C70.4338 31.7914 71.1313 31.2063 71.9415 30.7787C72.7516 30.3512 73.6967 30.1262 74.7768 30.1262C75.7895 30.1262 76.7121 30.3287 77.5222 30.7337C78.3323 31.1388 79.0299 31.7014 79.5925 32.4215C80.1551 33.1416 80.5826 33.9292 80.8976 34.8293C81.2127 35.7294 81.3477 36.6745 81.3477 37.6422C81.3477 38.5423 81.1902 39.4424 80.9202 40.3425Z" fill="#A6A4A1"/>
<path d="M24.1458 54.0021H21.333V61.2706H19.9828V54.0021H17.1699V52.832H24.1458V54.0021Z" fill="white"/>
<path d="M25.7439 52.832L28.3092 59.6504L30.852 52.832H32.2472L28.9168 61.2931H27.6566L24.3262 52.832H25.7439Z" fill="white"/>
<path d="M35.1719 56.9727C35.1719 56.4551 35.2619 55.9601 35.4419 55.465C35.6219 54.9699 35.892 54.5199 36.252 54.1148C36.6121 53.7098 37.0396 53.3722 37.5347 53.1472C38.0298 52.8996 38.6148 52.7871 39.2449 52.7871C40.01 52.7871 40.6851 52.9672 41.2252 53.3047C41.7878 53.6422 42.1928 54.0923 42.4628 54.6324L41.4052 55.33C41.2477 54.9924 41.0677 54.7224 40.8201 54.5199C40.5726 54.3173 40.3251 54.1823 40.0325 54.0923C39.74 54.0023 39.4699 53.9798 39.1999 53.9798C38.7724 53.9798 38.3673 54.0698 38.0523 54.2498C37.7147 54.4299 37.4447 54.6549 37.2196 54.9474C36.9946 55.24 36.8146 55.5775 36.7246 55.9376C36.6121 56.2976 36.5671 56.6577 36.5671 57.0402C36.5671 57.4453 36.6346 57.8503 36.7696 58.2104C36.9046 58.5929 37.0846 58.908 37.3322 59.2005C37.5797 59.493 37.8497 59.7181 38.1873 59.8756C38.5248 60.0331 38.8849 60.1231 39.2674 60.1231C39.5375 60.1231 39.83 60.0781 40.1225 59.9881C40.4151 59.8981 40.6851 59.7406 40.9326 59.538C41.1802 59.3355 41.3827 59.0655 41.5177 58.7504L42.6204 59.3805C42.4628 59.8081 42.1928 60.1681 41.8103 60.4607C41.4502 60.7532 41.0227 60.9782 40.5726 61.1358C40.1225 61.2933 39.65 61.3608 39.1999 61.3608C38.6148 61.3608 38.0748 61.2258 37.6022 60.9782C37.1071 60.7307 36.6796 60.3932 36.3195 59.9881C35.9595 59.5606 35.6894 59.1105 35.4869 58.5929C35.2619 58.0303 35.1719 57.5128 35.1719 56.9727Z" fill="white"/>
<path d="M50.7219 52.832V61.2931H49.3942V57.5576H45.1412V61.2931H43.791V52.832H45.1412V56.3649H49.3942V52.832H50.7219Z" fill="white"/>
<path d="M54.9964 52.832H56.2565L59.542 61.2931H58.1468L57.3142 58.9978H53.9387L53.1061 61.2931H51.7109L54.9964 52.832ZM56.9766 57.9852L55.649 54.2722L54.3213 57.9852H56.9766Z" fill="white"/>
<path d="M61.8834 55.3073V61.2931H60.5332V52.832H61.6358L66.429 58.9303V52.832H67.7566V61.2706H66.609L61.8834 55.3073Z" fill="white"/>
<path d="M70.9517 55.3073V61.2931H69.6016V52.832H70.7042L75.4973 58.9303V52.832H76.825V61.2706H75.6774L70.9517 55.3073Z" fill="white"/>
<path d="M84.4776 60.1006V61.2707H78.6719V52.8096H84.3876V53.9798H80.0446V56.3876H83.825V57.4902H80.0446V60.0781H84.4776V60.1006Z" fill="white"/>
<path d="M85.8047 61.2707V52.8096H87.1549V60.0781H91.678V61.2482H85.8047V61.2707Z" fill="white"/>
<path d="M10.0371 32.8722C10.0371 31.0719 10.3522 29.3167 11.0047 27.584C11.6573 25.8512 12.6025 24.276 13.8401 22.8583C15.0778 21.4406 16.608 20.3155 18.3857 19.4604C20.186 18.6278 22.2337 18.2002 24.5065 18.2002C27.2069 18.2002 29.5472 18.7853 31.5275 19.978C33.1027 20.9231 34.3629 22.1157 35.308 23.5334C35.6905 24.1185 35.533 24.9061 34.9704 25.2887L32.7201 26.8414C32.1351 27.2464 31.3249 27.0889 30.9199 26.5038C30.5373 25.9187 30.0873 25.4237 29.5922 25.0186C28.7821 24.366 27.927 23.916 27.0269 23.6459C26.1268 23.3759 25.2266 23.2634 24.3265 23.2634C22.8863 23.2634 21.6487 23.5559 20.5685 24.141C19.5109 24.7261 18.6108 25.4912 17.8907 26.4138C17.1706 27.3589 16.6305 28.3941 16.2929 29.5642C15.9554 30.7344 15.7754 31.882 15.7754 33.0522C15.7754 34.3574 15.9779 35.595 16.4055 36.8102C16.8105 38.0028 17.3956 39.083 18.1607 40.0056C18.9258 40.9282 19.8259 41.6708 20.8836 42.2109C21.9412 42.751 23.1114 43.021 24.394 43.021C25.2941 43.021 26.2393 42.8635 27.1619 42.5709C28.107 42.2784 28.9621 41.7833 29.7722 41.1308C30.2673 40.7257 30.6949 40.2306 31.0549 39.6681C31.415 39.083 32.1801 38.8805 32.7876 39.2405L35.2855 40.6807C35.8931 41.0407 36.1181 41.8283 35.758 42.4359C35.1955 43.4036 34.4304 44.2587 33.4852 45.0013C32.1801 46.0139 30.6949 46.8015 29.0746 47.3191C27.4544 47.8366 25.8342 48.1067 24.2365 48.1067C22.1437 48.1067 20.2085 47.6791 18.4757 46.8015C16.743 45.9239 15.2353 44.7762 13.9751 43.3135C12.715 41.8734 11.7473 40.2306 11.0272 38.4304C10.3972 36.5401 10.0371 34.7174 10.0371 32.8722Z" fill="#CABFC1"/>
<path d="M62.874 27.0657C62.1764 25.288 61.2088 23.6903 59.9711 22.2501C58.7335 20.8099 57.2258 19.6622 55.4705 18.8071C53.7153 17.952 51.78 17.5244 49.6422 17.5244C47.5495 17.5244 45.6142 17.9295 43.859 18.7396C42.1037 19.5497 40.596 20.6524 39.3134 22.0475C38.0307 23.4427 37.0181 25.0404 36.298 26.8182C35.5554 28.5959 35.1953 30.4637 35.1953 32.4214C35.1953 34.2892 35.5329 36.1344 36.2305 37.9121C36.928 39.6899 37.8957 41.2876 39.1558 42.7278C40.416 44.1455 41.9237 45.2706 43.6789 46.1032C45.4342 46.9358 47.3919 47.3409 49.5297 47.3409C51.6 47.3409 53.5128 46.9358 55.268 46.1482C57.0232 45.3381 58.5309 44.258 59.8136 42.8628C61.0963 41.4676 62.0864 39.8699 62.8065 38.0922C63.5266 36.3144 63.8866 34.4467 63.8866 32.5114C63.9091 30.6662 63.5716 28.8434 62.874 27.0657ZM55.7181 35.1668C55.4255 36.0669 55.0205 36.877 54.4579 37.6196C53.9178 38.3397 53.2202 38.9248 52.3876 39.3748C51.555 39.8024 50.6099 40.0274 49.5747 40.0274C48.5396 40.0274 47.617 39.8249 46.8069 39.3973C45.9968 38.9923 45.2992 38.4297 44.7366 37.7096C44.174 37.012 43.7465 36.2019 43.4539 35.2793C43.1614 34.3792 43.0039 33.434 43.0039 32.4664C43.0039 31.5438 43.1389 30.6212 43.4314 29.7436C43.724 28.8434 44.129 28.0558 44.6916 27.3357C45.2317 26.6156 45.9292 26.0306 46.7394 25.603C47.5495 25.1755 48.4946 24.9504 49.5747 24.9504C50.5874 24.9504 51.51 25.1529 52.3201 25.5805C53.1302 25.9856 53.8278 26.5481 54.3904 27.2682C54.953 27.9658 55.3805 28.7759 55.6956 29.676C56.0106 30.5762 56.1456 31.5213 56.1456 32.4889C56.1456 33.3665 56.0106 34.2892 55.7181 35.1668Z" fill="#A6A4A1"/>
<path d="M90.1465 44.3487V17.4351C90.1465 16.7375 90.7091 16.1749 91.4067 16.1749H94.6021C95.2997 16.1749 95.8622 16.7375 95.8622 17.4351V26.8188C95.8622 27.989 97.3024 28.5291 98.0675 27.6514L107.834 16.5575C108.081 16.2874 108.419 16.1299 108.779 16.1299H111.772C112.852 16.1299 113.437 17.3901 112.717 18.2002L103.896 28.439C103.513 28.8891 103.491 29.5192 103.828 29.9917L113.752 43.5611C114.36 44.3937 113.775 45.5638 112.739 45.5638H109.387C108.981 45.5638 108.599 45.3613 108.374 45.0463L100.475 34.1098C100.025 33.4797 99.0802 33.4122 98.5401 33.9748L96.1998 36.4276C95.9748 36.6526 95.8622 36.9677 95.8622 37.3052V44.3262C95.8622 45.0237 95.2997 45.5863 94.6021 45.5863H91.4067C90.7091 45.5863 90.1465 45.0237 90.1465 44.3487Z" fill="#CABFC1"/>
<path d="M27.3184 14.9149C27.5885 15.5 27.8585 16.1075 28.1285 16.7151C21.9177 18.4478 16.112 20.9907 10.7788 24.6137L10.4412 23.8486C10.1262 23.151 9.81114 22.4534 9.49609 21.7783C10.0137 21.4182 10.5312 21.0582 11.2063 20.6306C14.7843 18.3353 18.6098 16.5576 22.6153 15.1849C24.0105 14.7123 25.4507 14.3298 26.8909 13.9697C27.0484 14.2848 27.1834 14.5998 27.3184 14.9149Z" fill="#E5E5E5"/>
<path d="M26.9132 15.0271C27.1607 15.5672 27.4083 16.1072 27.6558 16.6698C27.1382 16.8273 26.5982 16.9849 26.0806 17.1424C25.608 15.8597 24.7304 13.8119 23.9428 13.5194C23.3352 13.2944 22.9077 12.8893 22.6602 12.5518C23.5378 12.6193 24.4379 12.5743 25.338 12.5743C25.518 12.5743 25.8106 12.5968 25.8556 12.7093C26.1931 13.4744 26.5532 14.2395 26.9132 15.0271Z" fill="#E5E5E5"/>
<path d="M21.0858 3.84282C17.7554 3.21273 9.02424 2.31261 9.24927 9.98615C8.39415 9.51358 7.44903 9.17604 6.50391 8.77098C6.61642 8.45594 6.72894 8.00588 6.90896 7.57832C9.02424 2.35762 15.7076 0.354841 20.5683 3.48277C20.7483 3.59528 20.9283 3.7078 21.0858 3.84282Z" fill="#E5E5E5"/>
<path d="M11.7017 16.9851L14.087 22.3183C13.0518 22.9033 12.0392 23.5334 11.0491 24.2085L10.734 23.5109C9.83392 21.5082 8.9338 19.5054 8.03368 17.5026C7.85366 17.0751 7.53862 16.9176 7.08856 17.0526C6.70601 17.1876 6.54849 17.6377 6.72851 18.0652C6.86353 18.4253 7.04355 18.7628 7.20107 19.1453C6.97605 19.2129 6.84103 19.2804 6.68351 19.3029C4.81576 19.5504 3.28556 18.9428 2.22792 17.4126C1.17029 15.8599 1.10278 14.1497 2.09291 12.5295C3.51059 10.1892 6.39097 9.73909 8.50625 11.2468C7.17857 11.4043 3.19555 12.1244 5.28832 14.4197C7.80865 17.1651 9.94643 13.047 11.7017 16.9851Z" fill="#E5E5E5"/>
<path d="M28.8054 3.30632C27.0276 0.830985 23.5847 0.133389 20.9518 1.6636C20.7718 1.77611 20.4343 1.73111 20.2317 1.64109C15.9337 -0.0916415 11.8831 0.223402 8.23766 3.26131C7.7651 3.64387 7.36004 4.07142 6.99999 4.54399C6.86498 4.72401 6.72996 4.90404 6.59494 5.10656C5.89735 6.1192 5.40228 7.28936 5.13225 8.54953C5.04224 8.93208 4.88472 9.0671 4.52467 9.17962C3.51203 9.44965 2.63442 9.96722 1.91432 10.6198C0.406624 11.9475 -0.313471 14.0178 0.136589 16.1106C0.789175 19.1935 3.71456 21.2188 6.86498 20.7462C7.18002 20.7012 7.47256 20.6337 7.8101 20.5662C8.48519 22.0739 10.1504 25.6294 10.5105 26.4395C11.7481 25.5844 12.4232 25.0668 13.6834 24.2567C16.9013 22.2314 20.3218 20.6337 23.8997 19.396C25.745 18.7659 27.6577 18.3159 29.548 17.7983C29.773 17.7308 29.0754 16.1781 28.3328 14.6254C27.8377 13.5677 27.3202 12.5101 27.0501 11.925C27.3202 11.7 27.5677 11.52 27.8152 11.2949C28.5578 10.6648 29.0979 9.89971 29.458 9.0446C29.7055 8.43702 29.8405 7.78443 29.8855 7.13184C29.9755 5.80416 29.6155 4.45398 28.8054 3.30632ZM28.4003 5.91667C29.0079 9.17962 26.1725 11.88 22.9321 11.1599C22.2795 11.0249 21.9195 11.1824 21.8069 11.6325C21.7169 12.0825 21.987 12.4876 22.6171 12.5551C23.5172 12.6226 24.4173 12.5776 25.3174 12.5776C25.4974 12.5776 25.79 12.6001 25.835 12.7126C26.195 13.4777 26.5551 14.2428 26.8926 15.0304C27.1402 15.5705 27.3877 16.1106 27.6352 16.6732C21.7169 18.3609 16.1812 20.7912 11.0505 24.2117L10.7355 23.5141C10.488 22.974 10.2629 22.4564 10.0154 21.9164C11.7481 20.7012 13.5259 19.531 15.3486 18.4734C16.3162 17.9108 17.3064 17.3932 18.319 16.9207C19.3316 16.4481 20.3668 16.0206 21.4469 15.7055C20.3443 15.9306 19.2641 16.2681 18.2065 16.6506C17.1488 17.0332 16.1137 17.4833 15.0786 17.9558C13.1883 18.8334 11.3431 19.8236 9.52033 20.8587C9.02526 19.7561 8.5302 18.6309 8.01263 17.5283C7.8326 17.1007 7.51756 16.9432 7.0675 17.0782C6.68495 17.2132 6.52743 17.6633 6.70746 18.0908C6.84247 18.4509 7.0225 18.7884 7.18002 19.171C6.95499 19.2385 6.81997 19.306 6.66245 19.3285C4.7947 19.576 3.2645 18.9685 2.20686 17.4383C1.14922 15.8855 1.08171 14.1753 2.07184 12.5551C3.71456 9.8322 7.36004 9.65218 9.47532 12.1725C9.79036 12.5551 10.1279 12.7351 10.578 12.4426C10.9605 12.195 11.0055 11.7 10.6005 11.2724C10.1954 10.8224 9.76786 10.3273 9.25029 10.0347C8.39518 9.56217 7.45005 9.22462 6.45992 8.79706C6.57244 8.48202 6.68495 8.03196 6.86498 7.6044C9.02526 2.36119 15.7086 0.358421 20.5693 3.48634C21.5144 4.09393 22.302 4.83653 22.9321 5.78166C23.2696 6.27672 23.6522 6.38924 24.0572 6.1192C24.4173 5.87167 24.4398 5.46661 24.1248 4.99405C23.9897 4.79152 23.8772 4.58899 23.7197 4.43147C23.2021 3.8689 22.6846 3.30632 22.167 2.76625C24.5973 1.41606 27.8827 3.10379 28.4003 5.91667Z" fill="#CABFC1"/>
</g>
</g>
</g>
</g>
<defs>
<clipPath id="clip0_3_2910">
<rect width="114" height="65" fill="white" transform="translate(0 0.580078)"/>
</clipPath>
<clipPath id="clip1_3_2910">
<rect width="114" height="65" fill="white" transform="translate(0 0.580078)"/>
</clipPath>
<clipPath id="clip2_3_2910">
<rect width="114" height="65" fill="white" transform="translate(0 0.580078)"/>
</clipPath>
</defs>
</svg>
