<svg width="12" height="8" viewBox="0 0 12 8" fill="none" xmlns="http://www.w3.org/2000/svg">
<path d="M5.1416 6.8125L0.625977 2.29688C0.471029 2.14193 0.393555 1.95378 0.393555 1.73242C0.393555 1.51107 0.471029 1.32292 0.625977 1.16797L1.38965 0.4375C1.5446 0.282552 1.73275 0.205078 1.9541 0.205078C2.17546 0.205078 2.36361 0.282552 2.51855 0.4375L5.70605 3.625L8.89355 0.4375C9.0485 0.282552 9.23665 0.205078 9.45801 0.205078C9.67936 0.205078 9.86751 0.282552 10.0225 0.4375L10.7861 1.16797C10.9411 1.32292 11.0186 1.51107 11.0186 1.73242C11.0186 1.95378 10.9411 2.14193 10.7861 2.29688L6.27051 6.8125C6.11556 6.96745 5.92741 7.04492 5.70605 7.04492C5.4847 7.04492 5.29655 6.96745 5.1416 6.8125Z" fill="#5C5C5B"/>
</svg>
