<svg width="56" height="56" viewBox="0 0 56 56" fill="none" xmlns="http://www.w3.org/2000/svg">
<path d="M46.3934 35.43H46.2101L43.0934 28.28C43.5823 28.5245 44.1323 28.6467 44.7434 28.6467C44.9879 28.6467 45.1712 28.555 45.2934 28.3717C45.4156 28.1884 45.4768 27.9745 45.4768 27.73V20.7634C45.4768 20.6412 45.4156 20.4884 45.2934 20.305C45.1712 20.1217 44.9879 20.03 44.7434 20.03C43.7656 20.03 42.9101 20.305 42.1768 20.855C41.4434 21.405 40.9545 22.1078 40.7101 22.9634C40.099 22.23 39.3656 21.8023 38.5101 21.68C37.899 21.5578 37.349 21.5578 36.8601 21.68H36.1268C35.3934 21.68 34.8434 21.5273 34.4768 21.2217C34.1101 20.9162 33.6212 20.3356 33.0101 19.48L32.4601 18.7467C32.949 18.7467 33.4379 18.5634 33.9268 18.1967C34.6601 17.7078 35.0879 17.0356 35.2101 16.18C35.8212 15.9356 36.1879 15.5078 36.3101 14.8967C36.4323 14.2856 36.3101 13.7356 35.9434 13.2467C35.5768 12.7578 35.3323 12.1467 35.2101 11.4134C35.4545 11.4134 35.6684 11.3217 35.8518 11.1384C36.0351 10.955 36.1268 10.7412 36.1268 10.4967C36.1268 8.66338 35.4545 7.07449 34.1101 5.73005C32.7656 4.3856 31.1462 3.71338 29.2518 3.71338C27.3573 3.71338 25.7379 4.3856 24.3934 5.73005C23.049 7.07449 22.3768 8.66338 22.3768 10.4967C22.3768 12.33 23.049 13.98 24.3934 15.4467L24.9434 15.9967C22.2545 16.6078 20.2379 18.8078 18.8934 22.5967C18.4045 21.9856 17.7934 21.68 17.0601 21.68H7.89342C6.91565 21.68 6.18231 22.1078 5.69342 22.9634C5.44898 23.2078 5.35731 23.4217 5.41842 23.605C5.47954 23.7884 5.63231 23.9717 5.87676 24.155C6.1212 24.3384 6.33509 24.3995 6.51842 24.3384C6.70176 24.2773 6.88509 24.1245 7.06842 23.88C7.25176 23.6356 7.52676 23.5134 7.89342 23.5134H9.54342V26.08C9.54342 26.3245 9.60454 26.5078 9.72676 26.63C9.84898 26.7523 10.0323 26.8134 10.2768 26.8134H14.6768C14.9212 26.8134 15.1045 26.7523 15.2268 26.63C15.349 26.5078 15.4101 26.3245 15.4101 26.08V23.5134H17.0601C17.3045 23.5134 17.5184 23.605 17.7018 23.7884C17.8851 23.9717 17.9768 24.1856 17.9768 24.43V31.03C17.9768 31.2745 17.8851 31.4884 17.7018 31.6717C17.5184 31.855 17.3045 31.9467 17.0601 31.9467H7.89342C7.64898 31.9467 7.43509 31.8856 7.25176 31.7634C7.06842 31.6412 6.97676 31.4578 6.97676 31.2134H8.62676C8.8712 31.2134 9.08509 31.1217 9.26842 30.9384C9.45176 30.755 9.54342 30.5412 9.54342 30.2967C9.54342 30.0523 9.45176 29.8384 9.26842 29.655C9.08509 29.4717 8.8712 29.38 8.62676 29.38H6.97676V27.73H7.71009C7.95454 27.73 8.16842 27.6384 8.35176 27.455C8.53509 27.2717 8.62676 27.0578 8.62676 26.8134C8.62676 26.5689 8.53509 26.3856 8.35176 26.2634C8.16842 26.1412 7.95454 26.08 7.71009 26.08H3.49342C3.24898 26.08 3.03509 26.1412 2.85176 26.2634C2.66842 26.3856 2.57676 26.5689 2.57676 26.8134C2.57676 27.0578 2.66842 27.2717 2.85176 27.455C3.03509 27.6384 3.24898 27.73 3.49342 27.73H5.14342V29.38H1.66009C1.41565 29.38 1.23231 29.4717 1.11009 29.655C0.987869 29.8384 0.926758 30.0523 0.926758 30.2967C0.926758 30.5412 0.987869 30.755 1.11009 30.9384C1.23231 31.1217 1.41565 31.2134 1.66009 31.2134H5.14342C5.14342 31.9467 5.41842 32.5578 5.96842 33.0467C6.51842 33.5356 7.16009 33.78 7.89342 33.78H12.1101C11.7434 34.1467 11.4379 34.5745 11.1934 35.0634C9.9712 37.3856 9.4212 39.83 9.54342 42.3967C9.54342 42.6412 9.60454 42.8245 9.72676 42.9467C9.84898 43.0689 10.0323 43.13 10.2768 43.13H13.0268C13.2712 44.8412 14.0351 46.2773 15.3184 47.4384C16.6018 48.5995 18.099 49.18 19.8101 49.18C21.5212 49.18 23.0184 48.5995 24.3018 47.4384C25.5851 46.2773 26.349 44.8412 26.5934 43.13H39.6101C39.8545 44.9634 40.6795 46.4606 42.0851 47.6217C43.4906 48.7828 45.1101 49.3023 46.9434 49.18C48.7768 49.0578 50.3045 48.2939 51.5268 46.8884C52.749 45.4828 53.3295 43.8634 53.2684 42.03C53.2073 40.1967 52.5045 38.6384 51.1601 37.355C49.8156 36.0717 48.2268 35.43 46.3934 35.43ZM13.7601 25.1634H11.1934V23.5134H13.7601V25.1634ZM43.8268 21.8634V26.8134C43.3379 26.5689 42.9406 26.2328 42.6351 25.805C42.3295 25.3773 42.1768 24.8884 42.1768 24.3384C42.1768 23.7884 42.3295 23.2689 42.6351 22.78C42.9406 22.2912 43.3379 21.9856 43.8268 21.8634ZM38.3268 23.33C38.5712 23.33 38.8156 23.4523 39.0601 23.6967C39.3045 23.9412 39.4879 24.2467 39.6101 24.6134L39.7934 25.1634C38.5712 25.7745 37.2879 26.08 35.9434 26.08C35.8212 25.4689 35.8823 24.9189 36.1268 24.43C36.3712 23.9412 36.7073 23.6356 37.1351 23.5134C37.5629 23.3912 37.899 23.33 38.1434 23.33H38.3268ZM33.9268 14.8967C33.6823 15.0189 33.5601 15.2939 33.5601 15.7217C33.5601 16.1495 33.3462 16.5162 32.9184 16.8217C32.4906 17.1273 31.6656 17.0356 30.4434 16.5467H30.2601H30.0768V13.2467C30.0768 12.7578 30.2601 12.33 30.6268 11.9634C30.9934 11.5967 31.4212 11.4134 31.9101 11.4134H33.5601C33.5601 12.5134 33.8656 13.5523 34.4768 14.53L33.9268 14.8967ZM24.0268 10.4967C24.149 9.15227 24.699 7.9606 25.6768 6.92171C26.6545 5.88282 27.8156 5.36338 29.1601 5.36338C30.5045 5.36338 31.6351 5.7606 32.5518 6.55505C33.4684 7.34949 34.049 8.41894 34.2934 9.76338H31.9101C30.9323 9.76338 30.1073 10.0995 29.4351 10.7717C28.7629 11.4439 28.4268 12.2689 28.4268 13.2467V15.63C27.0823 15.3856 26.0129 14.7745 25.2184 13.7967C24.424 12.8189 24.0268 11.7189 24.0268 10.4967ZM26.5934 17.4634C27.9379 17.4634 28.9768 17.7689 29.7101 18.38C30.199 18.7467 30.8101 19.4189 31.5434 20.3967C32.0323 21.13 32.5212 21.68 33.0101 22.0467C33.499 22.6578 34.1101 23.0856 34.8434 23.33C34.3545 24.0634 34.1712 24.9189 34.2934 25.8967C31.9712 25.4078 30.2601 24.1245 29.1601 22.0467C29.0379 21.8023 28.7934 21.6495 28.4268 21.5884C28.0601 21.5273 27.7851 21.68 27.6018 22.0467C27.4184 22.4134 27.449 22.78 27.6934 23.1467C27.9379 23.5134 28.3045 23.9412 28.7934 24.43H28.6101C27.7545 25.4078 27.2045 26.5078 26.9601 27.73H19.8101V26.8134C19.9323 25.1023 20.3601 23.4523 21.0934 21.8634C22.3156 18.93 24.149 17.4634 26.5934 17.4634ZM19.8101 31.03V29.38H27.5101C28.2434 29.38 28.9768 29.5634 29.7101 29.93C31.0545 30.6634 31.7268 31.9467 31.7268 33.78V37.9967H28.4268V36.3467C28.4268 35.1245 27.999 34.0856 27.1434 33.23C26.2879 32.3745 25.249 31.9467 24.0268 31.9467H19.6268C19.749 31.7023 19.8101 31.3967 19.8101 31.03ZM19.8101 47.53C18.5879 47.53 17.4879 47.1328 16.5101 46.3384C15.5323 45.5439 14.9212 44.4745 14.6768 43.13H16.5101C16.6323 43.8634 16.999 44.4745 17.6101 44.9634C18.2212 45.4523 18.924 45.6967 19.7184 45.6967C20.5129 45.6967 21.2156 45.4523 21.8268 44.9634C22.4379 44.4745 22.8656 43.8634 23.1101 43.13H24.9434C24.699 44.4745 24.0879 45.5439 23.1101 46.3384C22.1323 47.1328 21.0323 47.53 19.8101 47.53ZM18.3434 43.13H21.2768C20.9101 43.7412 20.3906 44.0467 19.7184 44.0467C19.0462 44.0467 18.5879 43.7412 18.3434 43.13ZM11.1934 41.48C11.3156 39.5245 11.8045 37.63 12.6601 35.7967C13.0268 35.1856 13.5462 34.6967 14.2184 34.33C14.8906 33.9634 15.5934 33.78 16.3268 33.78H24.0268C24.7601 33.6578 25.4018 33.8717 25.9518 34.4217C26.5018 34.9717 26.7156 35.6134 26.5934 36.3467V38.9134C26.5934 39.8912 26.899 40.7467 27.5101 41.48H11.1934ZM30.9934 41.48C30.3823 41.48 29.8629 41.3273 29.4351 41.0217C29.0073 40.7162 28.7323 40.3189 28.6101 39.83H32.6434C33.1323 39.7078 33.5601 39.83 33.9268 40.1967C34.2934 40.5634 34.4768 40.9912 34.4768 41.48H33.5601H30.9934ZM36.4934 40.5634C36.3712 40.6856 36.249 40.8078 36.1268 40.93C36.0045 40.1967 35.699 39.5856 35.2101 39.0967C34.7212 38.6078 34.1712 38.3023 33.5601 38.18V33.78C33.5601 32.3134 33.1018 30.9995 32.1851 29.8384C31.2684 28.6773 30.1379 28.0356 28.7934 27.9134C28.9156 27.0578 29.2823 26.3245 29.8934 25.7134C31.2379 26.8134 32.7656 27.4856 34.4768 27.73L37.0434 38.18C37.1656 39.0356 36.9823 39.83 36.4934 40.5634ZM38.6934 37.8134L36.3101 27.73C37.7768 27.73 39.1823 27.4245 40.5268 26.8134L44.5601 36.1634L40.8934 41.48H37.7768C38.6323 40.38 38.9379 39.1578 38.6934 37.8134ZM46.3934 41.48H44.9268C45.1712 41.1134 45.4768 40.8689 45.8434 40.7467C46.2101 40.6245 46.5768 40.5939 46.9434 40.655C47.3101 40.7162 47.6156 40.93 47.8601 41.2967C48.1045 41.6634 48.2268 42.03 48.2268 42.3967C48.2268 42.7634 48.1045 43.0995 47.8601 43.405C47.6156 43.7106 47.3101 43.9245 46.9434 44.0467C46.5768 44.1689 46.2101 44.1384 45.8434 43.955C45.4768 43.7717 45.1712 43.4967 44.9268 43.13H46.3934C46.6379 43.13 46.8518 43.0689 47.0351 42.9467C47.2184 42.8245 47.3101 42.6412 47.3101 42.3967C47.3101 42.1523 47.2184 41.9384 47.0351 41.755C46.8518 41.5717 46.6379 41.48 46.3934 41.48ZM42.9101 41.48L43.2768 41.1134L43.0934 41.48H42.9101ZM46.3934 47.53C45.1712 47.53 44.0712 47.1328 43.0934 46.3384C42.1156 45.5439 41.5045 44.4745 41.2601 43.13H43.0934C43.3379 43.8634 43.7351 44.4745 44.2851 44.9634C44.8351 45.4523 45.5073 45.7273 46.3018 45.7884C47.0962 45.8495 47.799 45.6356 48.4101 45.1467C49.0212 44.6578 49.449 44.0467 49.6934 43.3134C49.9379 42.58 49.9379 41.8467 49.6934 41.1134C49.449 40.38 48.9906 39.7995 48.3184 39.3717C47.6462 38.9439 46.9129 38.7606 46.1184 38.8217C45.324 38.8828 44.6823 39.2189 44.1934 39.83L46.0268 37.2634H46.3934C47.8601 37.2634 49.0823 37.7523 50.0601 38.73C51.0379 39.7078 51.5268 40.8995 51.5268 42.305C51.5268 43.7106 51.0379 44.9328 50.0601 45.9717C49.0823 47.0106 47.8601 47.53 46.3934 47.53Z" fill="#FFC222"/>
</svg>
