<svg width="90" height="83" viewBox="0 0 90 83" fill="none" xmlns="http://www.w3.org/2000/svg">
<rect y="42.77" width="40" height="40" rx="5" fill="#212121"/>
<path d="M27.573 56.9868C28.6134 57.8722 29.1668 59.0011 29.2332 60.3735C29.2996 61.7459 28.8569 62.908 27.9051 63.8599L21.4969 70.5005C21.2755 70.7218 21.021 70.8325 20.7332 70.8325C20.4454 70.8325 20.1909 70.7218 19.9695 70.5005L13.5613 63.8599C12.6095 62.908 12.1668 61.7459 12.2332 60.3735C12.2996 59.0011 12.853 57.8722 13.8934 56.9868C14.8009 56.2121 15.8413 55.88 17.0145 55.9907C18.2098 56.0793 19.228 56.5552 20.0691 57.4185L20.7332 58.0825L21.3973 57.4185C22.2384 56.5552 23.2456 56.0793 24.4188 55.9907C25.6141 55.88 26.6655 56.2121 27.573 56.9868Z" fill="white"/>
<a href="https://www.figma.com/design/Zo6jkxWkt6KhJdxu9rbYBl?node-id=44-1747">
<rect fill="black" fill-opacity="0" x="0.200001" width="17" height="17"/>
</a>
</svg>
