<svg width="16" height="11" viewBox="0 0 16 11" fill="none" xmlns="http://www.w3.org/2000/svg">
<path d="M7.20382 9.01172C7.35877 9.16667 7.43624 9.35482 7.43624 9.57617C7.43624 9.77539 7.35877 9.96354 7.20382 10.1406L6.63937 10.6719C6.48442 10.849 6.29627 10.9375 6.07491 10.9375C5.87569 10.9375 5.69861 10.849 5.54366 10.6719L1.02804 6.18945C0.873089 6.03451 0.795615 5.84635 0.795615 5.625C0.795615 5.40365 0.873089 5.21549 1.02804 5.06055L5.54366 0.578125C5.69861 0.401042 5.87569 0.3125 6.07491 0.3125C6.29627 0.3125 6.48442 0.401042 6.63937 0.578125L7.20382 1.10938C7.35877 1.28646 7.43624 1.48568 7.43624 1.70703C7.43624 1.90625 7.35877 2.08333 7.20382 2.23828L5.04562 4.42969H14.8737C15.0951 4.42969 15.2832 4.50716 15.4382 4.66211C15.5931 4.81706 15.6706 5.00521 15.6706 5.22656V6.02344C15.6706 6.24479 15.5931 6.43294 15.4382 6.58789C15.2832 6.74284 15.0951 6.82031 14.8737 6.82031H5.04562L7.20382 9.01172Z" fill="#FFC222"/>
</svg>
