<svg width="56" height="56" viewBox="0 0 56 56" fill="none" xmlns="http://www.w3.org/2000/svg">
<path d="M16.5101 41.6634C16.7546 41.7856 16.8768 41.969 16.8768 42.2134C16.8768 42.4578 16.8157 42.6717 16.6935 42.8551C16.5712 43.0384 16.3879 43.1301 16.1435 43.1301C15.899 43.1301 15.7157 43.069 15.5935 42.9467C13.2712 41.2356 11.4379 39.0356 10.0935 36.3467C9.97123 36.2245 9.97123 36.0412 10.0935 35.7967C10.2157 35.5523 10.3685 35.3689 10.5518 35.2467C10.7351 35.1245 10.949 35.094 11.1935 35.1551C11.4379 35.2162 11.6212 35.3689 11.7435 35.6134C12.8435 38.0578 14.4323 40.0745 16.5101 41.6634ZM18.7101 43.1301C18.4657 43.1301 18.2518 43.2217 18.0685 43.4051C17.8851 43.5884 17.7935 43.8023 17.7935 44.0467C17.7935 44.2912 17.8851 44.4745 18.0685 44.5967C18.2518 44.719 18.4657 44.7801 18.7101 44.7801C18.9546 44.7801 19.1379 44.719 19.2601 44.5967C19.3823 44.4745 19.4435 44.2912 19.4435 44.0467C19.4435 43.8023 19.3823 43.5884 19.2601 43.4051C19.1379 43.2217 18.9546 43.1301 18.7101 43.1301ZM4.41012 8.29673C4.04346 7.68562 3.95179 7.01339 4.13512 6.28006C4.31846 5.54673 4.71568 5.02728 5.32679 4.72173C5.9379 4.41617 6.61012 4.35506 7.34346 4.53839C8.07679 4.72173 8.62679 5.05784 8.99346 5.54673L15.5935 17.2801C16.8157 17.1578 17.9462 17.3717 18.9851 17.9217C20.024 18.4717 20.7879 19.2356 21.2768 20.2134L24.5768 25.8967H28.2435C28.6101 24.3078 29.374 22.8106 30.5351 21.4051C31.6962 19.9995 33.0407 19.0217 34.5685 18.4717C36.0962 17.9217 37.5323 17.8912 38.8768 18.3801L41.9935 13.0634C41.5046 12.5745 41.199 11.9328 41.0768 11.1384C40.9546 10.3439 41.0768 9.58006 41.4435 8.84673L44.5601 3.71339C45.049 2.85784 45.7212 2.30784 46.5768 2.06339C47.4323 1.81895 48.2879 1.94117 49.1435 2.43006C49.999 2.91895 50.549 3.62173 50.7935 4.53839C51.0379 5.45506 50.9157 6.34117 50.4268 7.19673L47.4935 12.3301C47.0046 13.0634 46.424 13.5828 45.7518 13.8884C45.0796 14.194 44.3157 14.2245 43.4601 13.9801L40.5268 19.2967C41.3823 20.1523 42.024 21.1606 42.4518 22.3217C42.8796 23.4828 42.9712 24.6745 42.7268 25.8967H45.2935C46.0268 25.8967 46.6379 26.1717 47.1268 26.7217C47.6157 27.2717 47.8601 27.8523 47.8601 28.4634C47.8601 32.9856 46.6073 37.0495 44.1018 40.6551C41.5962 44.2606 38.3268 46.8578 34.2935 48.4467C34.7823 48.6912 35.1796 49.0884 35.4851 49.6384C35.7907 50.1884 35.8823 50.769 35.7601 51.3801C35.6379 51.9912 35.3323 52.4801 34.8435 52.8467C34.3546 53.2134 33.8046 53.3967 33.1935 53.3967H19.4435C18.8323 53.3967 18.3129 53.2134 17.8851 52.8467C17.4573 52.4801 17.1823 51.9912 17.0601 51.3801C16.9379 50.769 16.999 50.1884 17.2435 49.6384C17.4879 49.0884 17.9157 48.6912 18.5268 48.4467C14.3712 46.8578 11.0712 44.2606 8.62679 40.6551C6.18235 37.0495 4.96012 32.9856 4.96012 28.4634C4.96012 27.8523 5.20457 27.2717 5.69346 26.7217C6.18235 26.1717 6.79346 25.8967 7.52679 25.8967H10.8268C10.3379 24.919 10.124 23.9106 10.1851 22.8717C10.2462 21.8328 10.5823 20.8245 11.1935 19.8467L4.41012 8.29673ZM19.4435 50.0967C19.199 50.0967 19.0157 50.1578 18.8935 50.2801C18.7712 50.4023 18.7101 50.5856 18.7101 50.8301C18.7101 51.0745 18.7712 51.2884 18.8935 51.4717C19.0157 51.6551 19.199 51.7467 19.4435 51.7467H33.1935C33.4379 51.7467 33.6518 51.6551 33.8351 51.4717C34.0185 51.2884 34.1101 51.0745 34.1101 50.8301C34.1101 50.5856 34.0185 50.4023 33.8351 50.2801C33.6518 50.1578 33.4379 50.0967 33.1935 50.0967H19.4435ZM40.7101 22.4134C39.7323 26.4467 37.7157 29.8689 34.6601 32.6801C35.7601 32.4356 36.7685 31.9773 37.6851 31.3051C38.6018 30.6328 39.3657 29.8078 39.9768 28.8301C40.5879 27.8523 40.9546 26.8134 41.0768 25.7134C41.199 24.6134 41.0768 23.5134 40.7101 22.4134ZM32.0935 32.3134C33.0712 32.1912 34.2018 31.2134 35.4851 29.3801C36.7685 27.5467 37.7768 25.6523 38.5101 23.6967C39.2435 21.7412 39.3046 20.5801 38.6935 20.2134C38.0823 20.3356 37.2879 20.9773 36.3101 22.1384C35.3323 23.2995 34.4157 24.6745 33.5601 26.2634C32.7046 27.8523 32.1546 29.1967 31.9101 30.2967C31.7879 30.9078 31.7573 31.3662 31.8185 31.6717C31.8796 31.9773 31.9712 32.1912 32.0935 32.3134ZM46.0268 11.4134L48.9601 6.28006C49.2046 5.91339 49.2657 5.48561 49.1435 4.99673C49.0212 4.50784 48.7462 4.14117 48.3185 3.89673C47.8907 3.65228 47.4629 3.59117 47.0351 3.71339C46.6073 3.83562 46.2712 4.14117 46.0268 4.63006L42.9101 9.76339C42.6657 10.1301 42.6351 10.5578 42.8185 11.0467C43.0018 11.5356 43.2768 11.9023 43.6435 12.1467C44.0101 12.3912 44.4379 12.4523 44.9268 12.3301C45.4157 12.2078 45.7823 11.9023 46.0268 11.4134ZM30.2601 30.1134C31.2379 26.0801 33.1935 22.6578 36.1268 19.8467C34.9046 19.9689 33.7129 20.6106 32.5518 21.7717C31.3907 22.9328 30.5657 24.3078 30.0768 25.8967C29.5879 27.4856 29.649 28.8912 30.2601 30.1134ZM25.6768 27.7301C26.0435 28.3412 26.1351 28.9828 25.9518 29.6551C25.7685 30.3273 25.3712 30.8467 24.7601 31.2134L18.7101 34.6967C18.099 35.0634 17.4573 35.1551 16.7851 34.9717C16.1129 34.7884 15.5935 34.3912 15.2268 33.7801L11.7435 27.7301H7.52679C7.28235 27.7301 7.06846 27.8217 6.88512 28.0051C6.70179 28.1884 6.61012 28.3412 6.61012 28.4634C6.61012 32.7412 7.77123 36.5301 10.0935 39.8301C12.2935 42.8856 15.1962 45.1773 18.8018 46.7051C22.4073 48.2328 26.1046 48.6912 29.8935 48.0801C33.9268 47.3467 37.4101 45.5134 40.3435 42.5801C42.1768 40.7467 43.6129 38.6078 44.6518 36.1634C45.6907 33.719 46.2101 31.1523 46.2101 28.4634C46.2101 28.3412 46.1185 28.1884 45.9351 28.0051C45.7518 27.8217 45.5379 27.7301 45.2935 27.7301H42.3601C41.749 29.6856 40.6796 31.2745 39.1518 32.4967C37.624 33.719 36.0046 34.3606 34.2935 34.4217C32.5823 34.4828 31.1462 33.9634 29.9851 32.8634C28.824 31.7634 28.1823 30.0523 28.0601 27.7301H25.6768ZM5.87679 7.38006L13.0268 19.4801C13.149 19.8467 13.0879 20.2134 12.8435 20.5801C12.2323 21.1912 11.8962 21.9551 11.8351 22.8717C11.774 23.7884 11.9879 24.6745 12.4768 25.5301L16.6935 32.8634C16.8157 33.1078 16.999 33.2606 17.2435 33.3217C17.4879 33.3828 17.7323 33.3523 17.9768 33.2301L23.8435 29.7467C24.0879 29.6245 24.2407 29.4412 24.3018 29.1967C24.3629 28.9523 24.3323 28.7689 24.2101 28.6467L19.8101 21.1301C19.4435 20.3967 18.8323 19.8162 17.9768 19.3884C17.1212 18.9606 16.2657 18.8689 15.4101 19.1134C14.9212 19.1134 14.6157 18.9912 14.4935 18.7467L7.34346 6.46339C7.22123 6.21895 6.97679 6.09673 6.61012 6.09673C6.24346 6.09673 5.99901 6.2495 5.87679 6.55506C5.75457 6.86061 5.75457 7.13562 5.87679 7.38006Z" fill="#FFC222"/>
</svg>
