<svg width="125" height="72" viewBox="0 0 125 72" fill="none" xmlns="http://www.w3.org/2000/svg">
<g clip-path="url(#clip0_3_2868)">
<g clip-path="url(#clip1_3_2868)">
<g clip-path="url(#clip2_3_2868)">
<mask id="mask0_3_2868" style="mask-type:luminance" maskUnits="userSpaceOnUse" x="0" y="0" width="125" height="71">
<path d="M125 0.580078H0V70.6165H125V0.580078Z" fill="white"/>
</mask>
<g mask="url(#mask0_3_2868)">
<path d="M123.961 26.8269C122.271 26.8269 120.842 25.3976 120.842 23.7084V22.6689H86.0187C85.369 23.4485 84.8493 24.0982 84.3295 24.7479H118.893C119.283 26.6969 120.842 28.3861 122.921 28.7759V48.7864C120.972 49.1762 119.283 50.7354 118.893 52.8144H5.97713C5.58732 50.8654 4.02807 49.1762 1.94906 48.7864V28.7759C3.89813 28.3861 5.58732 26.8269 5.97713 24.7479H37.6819C37.552 24.3581 37.422 23.9682 37.422 23.4485C37.422 23.1886 37.422 22.9287 37.552 22.6689H4.158V23.7084C4.158 25.3976 2.72869 26.8269 1.0395 26.8269H0V50.7354H1.0395C2.72869 50.7354 4.158 52.1647 4.158 53.8539V54.8934H119.932H120.842V53.8539C120.842 52.1647 122.271 50.7354 123.961 50.7354H125V26.8269H123.961Z" fill="#B6B7BE"/>
<path d="M51.8457 14.4832C52.6253 14.4832 53.0151 13.9635 53.0151 13.5736C53.0151 13.0539 52.4955 12.6641 51.9757 12.6641C51.326 12.6641 50.6763 13.0539 50.6763 13.0539C50.0266 12.924 48.9871 12.794 48.3374 12.794C45.2189 12.794 42.8801 14.873 42.8801 16.8221C42.8801 17.8616 43.3999 18.9011 44.8292 18.9011C46.1285 18.9011 46.5183 17.6017 46.5183 16.952C46.5183 16.6922 46.5184 16.5622 46.3884 16.5622C46.2585 16.5622 46.1284 16.952 45.6087 16.952C45.0889 16.952 44.8292 16.5622 44.8292 16.0425C44.8292 14.873 46.2585 13.5736 48.2075 13.5736C48.7273 13.5736 49.1171 13.5736 49.5069 13.7036C48.5974 14.3533 47.5578 15.9125 46.7781 18.7712C45.4788 23.9687 44.6991 24.6183 43.2698 24.6183C42.6201 24.6183 42.2304 24.2285 42.2304 24.2285C42.2304 24.2285 43.0099 23.9687 43.0099 23.0591C43.0099 22.2795 42.4903 21.7597 41.7107 21.7597C40.8011 21.7597 40.2812 22.5393 40.2812 23.319C40.2812 24.3585 41.3207 25.398 43.2698 25.398C45.2189 25.398 47.6877 25.1381 48.9871 18.7712C49.6368 16.0425 50.2864 14.7431 50.6763 14.0934C51.196 14.3533 51.4559 14.4832 51.8457 14.4832Z" fill="#B6B7BE"/>
<path d="M68.2182 16.9521C68.9978 16.8222 69.6475 16.3024 69.6475 15.6528C69.6475 15.133 69.2577 14.7432 68.7379 14.7432C67.9583 14.7432 67.3086 15.3929 67.3086 16.0426C67.3086 16.5623 67.6984 16.9521 68.2182 16.9521Z" fill="#B6B7BE"/>
<path d="M84.4599 19.6808C84.3298 19.6808 84.1999 19.6808 84.1999 19.8107C82.5107 22.2795 81.4712 23.319 80.9515 23.319C80.8216 23.319 80.6916 23.1891 80.6916 22.7993C80.6916 22.6693 80.6917 22.4095 80.8216 22.1496C81.0815 21.37 81.861 20.2005 81.861 18.9011C81.861 18.3814 81.6011 17.9916 81.0814 17.9916C80.0419 17.9916 78.8725 19.4209 78.0928 20.5903C78.3527 19.8107 78.4826 19.161 78.4826 18.7712C78.4826 18.2515 78.3527 17.9916 77.833 17.9916C77.1833 17.9916 76.5337 18.3814 76.4037 19.4209C76.2738 20.2005 76.1439 20.7203 76.0139 21.1101C75.3642 22.0197 74.5846 22.9292 74.1948 22.9292C73.9349 22.9292 73.805 22.6693 73.805 22.1496C73.805 22.1496 75.2342 20.0706 75.2342 18.7712C75.2342 18.2515 74.7145 17.9916 74.0648 17.9916C73.8049 17.9916 73.675 18.2515 73.4151 18.5113C73.1553 18.2515 72.7655 17.9916 72.3757 17.9916C70.6865 17.9916 69.387 20.2005 69.1271 21.6298C68.4774 22.4095 67.9578 23.0592 67.568 23.0592C67.3081 23.0592 67.1782 22.7993 67.1782 22.2795C67.1782 22.0197 67.308 21.37 67.308 20.9802C67.308 20.9802 68.2176 19.9406 68.2176 18.7712C68.2176 18.2515 67.9578 17.8616 67.4381 17.8616C66.5285 17.8616 65.7488 19.6808 65.4889 21.37C64.3194 22.7993 63.9296 22.9292 63.6698 22.9292C63.2799 22.9292 63.1501 22.5394 63.1501 22.0197C63.1501 21.37 63.41 20.3305 63.41 20.3305C64.1896 19.291 66.9182 16.0425 66.9182 13.7036C66.9182 12.924 66.6583 12.5342 65.8787 12.5342C63.9296 12.5342 61.7207 18.5113 61.3309 21.37C60.6812 22.1496 60.1614 22.9292 59.7716 22.9292C59.5118 22.9292 59.3819 22.6693 59.3819 22.1496C59.3819 22.1496 60.8111 20.0706 60.8111 18.7712C60.8111 18.2515 60.2915 17.9916 59.6418 17.9916C59.3819 17.9916 59.252 18.2515 58.9921 18.5113C58.7322 18.2515 58.3423 17.9916 57.9525 17.9916C56.2633 17.9916 55.094 19.9407 54.7042 21.4999C53.5347 22.9292 53.1448 23.0592 52.8849 23.0592C52.4951 23.0592 52.3652 22.6693 52.3652 22.1496C52.3652 21.4999 52.6251 20.4604 52.6251 20.4604C53.0149 19.8107 54.1843 18.5113 55.0939 16.9521C57.3028 16.6922 59.2519 16.1725 59.2519 15.133C59.2519 14.4833 58.6023 14.2234 58.0825 14.2234C57.6927 14.2234 57.3028 14.3533 57.3028 14.4833C57.3028 14.6132 57.4328 14.6132 57.4328 14.8731C57.4328 15.2629 56.7832 15.9126 55.3539 16.3024C55.7437 15.5228 56.0034 14.7431 56.0034 13.9635C56.0034 13.1839 55.7437 12.7941 54.964 12.7941C53.9245 12.7941 52.755 14.4833 51.9754 16.4323H51.8455C51.0659 16.4323 50.676 16.6922 50.676 16.8221C50.676 16.8221 50.6761 16.9521 50.806 16.9521C51.0659 17.082 51.5857 17.082 51.5857 17.082C50.806 19.161 50.1562 21.4999 50.1562 22.5394C50.1562 23.8388 50.9359 24.4885 51.7155 24.4885C52.4951 24.4885 53.015 24.2286 54.3144 22.6693C54.4443 23.8388 54.9639 24.4885 56.0034 24.4885C56.7831 24.4885 57.3029 24.0987 57.8227 23.5789C57.9526 24.0987 58.2124 24.4885 58.8621 24.4885C59.6417 24.4885 60.2915 23.9687 61.201 22.7993C61.201 23.9687 61.8506 24.4885 62.6303 24.4885C63.4099 24.4885 64.0596 24.2286 65.229 22.7993C65.229 22.9292 65.229 22.9292 65.229 23.0592C65.229 23.7088 65.3589 24.4885 66.3984 24.4885C67.1781 24.4885 67.9578 23.9687 68.9972 22.7993C69.1271 23.8388 69.647 24.4885 70.6865 24.4885C71.4661 24.4885 71.9859 24.0987 72.5056 23.5789C72.6355 24.0987 72.8953 24.4885 73.545 24.4885C74.3246 24.4885 74.8444 24.0987 75.6241 23.0592C75.6241 23.1891 75.6241 23.319 75.6241 23.449C75.6241 24.2286 75.884 24.4885 76.4037 24.4885C77.3133 24.4885 77.703 23.319 78.0928 22.4095C78.4826 21.4999 79.5222 19.9406 79.9121 19.9406C80.042 19.9406 80.042 19.9406 80.042 20.0706C80.042 20.4604 79.1324 21.7598 79.1324 23.0592C79.1324 23.7088 79.2624 24.4885 80.3019 24.4885C81.4713 24.4885 81.9911 23.9687 84.8497 20.2005C84.9796 20.0706 84.9795 20.0706 84.9795 19.9406C84.7197 19.8107 84.5898 19.6808 84.4599 19.6808ZM65.7489 15.133C65.8788 15.133 65.8787 15.133 65.8787 15.2629C65.8787 15.7826 65.0992 17.212 64.0597 18.7712C63.9297 18.7712 65.2291 15.133 65.7489 15.133ZM54.834 15.133C54.834 15.133 54.964 15.133 54.964 15.2629C54.964 15.5228 54.8341 15.9126 54.5742 16.4323H54.0545C54.3144 15.6527 54.7041 15.133 54.834 15.133ZM53.6646 17.082C53.7945 17.082 53.9245 17.082 54.0545 17.082C53.7946 17.6018 53.4047 18.2515 53.0149 18.7712C53.0149 18.7712 53.4047 17.8616 53.6646 17.082ZM57.8227 22.6693C57.5628 22.9292 57.3028 23.1891 56.913 23.1891C56.3933 23.1891 56.1334 22.7993 56.1334 22.2795C56.1334 21.7598 56.2634 21.1101 56.5233 20.7203C56.9131 20.0706 57.3028 19.4209 57.9525 19.4209C58.0824 19.4209 58.3424 19.4209 58.4724 19.5508C58.0825 20.5903 57.8227 22.1496 57.8227 22.6693ZM72.2456 22.6693C71.9858 22.9292 71.7259 23.1891 71.3361 23.1891C70.8163 23.1891 70.5564 22.7993 70.5564 22.2795C70.5564 21.7598 70.6864 21.1101 70.9463 20.7203C71.3361 20.0706 71.726 19.4209 72.3757 19.4209C72.5056 19.4209 72.7655 19.4209 72.8954 19.5508C72.5056 20.5903 72.2456 22.1496 72.2456 22.6693Z" fill="#B6B7BE"/>
<path d="M92.7759 59.4422H32.225L28.9766 53.8549L32.225 48.2676H92.7759L96.0244 53.8549L92.7759 59.4422ZM32.8747 58.4027H92.2562L94.8549 53.9849L92.2562 49.567H32.8747L30.2759 53.9849L32.8747 58.4027Z" fill="#B6B7BE"/>
<path d="M51.8461 67.4988C51.1965 67.3689 50.8066 66.9791 50.8066 66.1994C50.8066 65.9396 50.8066 65.8096 50.9366 65.6797C51.1965 65.6797 51.3264 65.6797 51.5863 65.8096C51.5863 66.0695 51.5863 66.0695 51.4563 66.3294C51.4563 66.7192 51.5863 66.8491 51.8461 66.8491C52.236 66.8491 52.3659 66.7192 52.3659 66.3294C52.3659 66.0695 52.3659 65.8096 52.106 65.5498C51.8461 65.1599 51.7162 65.03 51.4563 64.6402C51.1965 64.2504 51.0665 63.8606 51.1965 63.3408C51.3264 62.6911 51.7162 62.1714 52.4958 62.3013C53.1455 62.4313 53.5353 62.8211 53.4054 63.4708C53.4054 63.7306 53.4054 63.8606 53.2755 63.9905C53.0156 63.9905 52.8856 63.9905 52.6258 63.8606C52.6258 63.6007 52.6258 63.6007 52.7557 63.3408C52.7557 62.951 52.6258 62.8211 52.3659 62.8211C52.106 62.8211 51.8461 62.951 51.8461 63.3408C51.8461 63.6007 51.8461 63.8606 52.106 64.1204C52.3659 64.5103 52.4958 64.6402 52.7557 65.03C53.0156 65.4198 53.1455 65.8096 53.1455 66.3294C53.0156 67.109 52.6258 67.6288 51.8461 67.4988Z" fill="#B6B7BE"/>
<path d="M53.5352 67.6291C53.795 65.5501 53.795 64.6405 54.0549 62.5615C54.3148 62.5615 54.4447 62.5615 54.7046 62.6915C54.4447 64.7705 54.4447 65.6801 54.1848 67.7591C54.0549 67.6291 53.925 67.6291 53.5352 67.6291Z" fill="#B6B7BE"/>
<path d="M56.654 67.8889C56.2642 66.3297 56.1343 65.5501 55.8744 63.9908C55.8744 63.9908 55.8744 64.6405 55.8744 65.0303C55.7445 66.0698 55.7445 66.7195 55.6145 67.759C55.3547 67.759 55.2247 67.759 54.9648 67.759C55.0948 65.68 55.2247 64.7704 55.4846 62.6914C55.7445 62.6914 55.8744 62.6914 56.2642 62.6914C56.5241 64.2507 56.654 65.0303 57.0438 66.5896C57.0438 66.5896 57.0438 65.9399 57.0438 65.5501C57.1738 64.5106 57.1738 63.8609 57.1738 62.8214C57.4337 62.8214 57.5636 62.8214 57.8235 62.8214C57.6935 64.9004 57.6935 65.8099 57.5636 67.8889C57.1738 67.8889 57.0438 67.8889 56.654 67.8889Z" fill="#B6B7BE"/>
<path d="M59.3825 68.1487C58.6029 68.1487 58.213 67.7589 58.343 66.9793C58.343 65.8098 58.4729 65.1601 58.4729 63.9907C58.4729 63.341 58.8627 62.9512 59.6424 62.9512C60.292 62.9512 60.6819 63.341 60.6819 64.1206C60.6819 64.3805 60.6819 64.5104 60.6819 64.6404C60.422 64.6404 60.292 64.6404 60.0322 64.6404C60.0322 64.3805 60.0322 64.3805 60.0322 64.1206C60.0322 63.7308 59.9022 63.6009 59.6424 63.6009C59.3825 63.6009 59.2525 63.7308 59.2525 64.1206C59.2525 65.2901 59.1226 65.9398 59.1226 67.1092C59.1226 67.499 59.2525 67.6289 59.5124 67.6289C59.7723 67.6289 59.9022 67.499 59.9022 67.1092C59.9022 66.8493 59.9022 66.8493 59.9022 66.5894C60.1621 66.5894 60.292 66.5894 60.5519 66.5894C60.5519 66.8493 60.5519 66.9793 60.5519 67.1092C60.422 67.7589 60.0322 68.1487 59.3825 68.1487Z" fill="#B6B7BE"/>
<path d="M61.0703 68.1486C61.0703 66.0696 61.0703 65.1601 61.2002 63.0811C61.8499 63.0811 62.2398 63.0811 62.8894 63.0811C62.8894 63.341 62.8894 63.4709 62.8894 63.7308C62.4996 63.7308 62.2397 63.7308 61.8499 63.7308C61.8499 64.3805 61.8499 64.6403 61.8499 65.29C62.2397 65.29 62.3697 65.29 62.7595 65.29C62.7595 65.5499 62.7595 65.6798 62.7595 65.9397C62.3697 65.9397 62.2397 65.9397 61.8499 65.9397C61.8499 66.5894 61.8499 66.9792 61.8499 67.6289C62.2397 67.6289 62.4996 67.6289 62.8894 67.6289C62.8894 67.8888 62.8894 68.0187 62.8894 68.2786C62.1098 68.1486 61.72 68.1486 61.0703 68.1486Z" fill="#B6B7BE"/>
<path d="M64.9691 68.0188C64.9691 66.4596 64.8391 65.6799 64.8391 63.9907C64.5793 63.9907 64.4493 63.9907 64.1895 63.9907C64.1895 63.7309 64.1895 63.7309 64.1895 63.471C64.5793 63.471 64.8391 63.3411 64.8391 62.8213C65.099 62.8213 65.229 62.8213 65.3589 62.8213C65.4888 64.9003 65.4888 65.8099 65.4888 67.8889C65.3589 68.0188 65.229 68.0188 64.9691 68.0188Z" fill="#B6B7BE"/>
<path d="M67.4391 68.0188C66.6595 68.0188 66.2696 67.6289 66.2696 66.9793C66.2696 66.8493 66.2696 66.7194 66.2696 66.5894C66.5295 66.5894 66.6595 66.5894 66.9193 66.5894C66.9193 66.7194 66.9193 66.8493 66.9193 66.9793C66.9193 67.3691 67.0493 67.499 67.3091 67.499C67.569 67.499 67.699 67.3691 67.699 66.9793C67.699 66.4595 67.699 66.1996 67.569 65.8098C67.569 65.9398 67.3091 66.1996 67.0493 66.1996C66.3996 66.1996 66.0098 65.8098 66.0098 65.1601C66.0098 64.7703 66.0098 64.5104 66.0098 64.1206C66.0098 63.4709 66.3996 62.9512 67.0493 62.9512C67.699 62.9512 68.2187 63.341 68.2187 63.9907C68.3486 65.1601 68.3486 65.8098 68.4786 66.9793C68.6085 67.499 68.2187 68.0188 67.4391 68.0188ZM67.699 63.9907C67.699 63.6009 67.569 63.4709 67.3091 63.4709C67.0493 63.4709 66.9193 63.6009 66.9193 63.9907C66.9193 64.3805 66.9193 64.5104 66.9193 64.9003C66.9193 65.2901 67.0493 65.42 67.3091 65.42C67.569 65.42 67.699 65.1601 67.699 64.9003C67.699 64.5104 67.699 64.2506 67.699 63.9907Z" fill="#B6B7BE"/>
<path d="M70.2965 67.759C69.5169 67.8889 69.1271 67.4991 68.9971 66.7195C68.9971 66.4596 68.9971 66.3297 68.9971 65.9399C68.9971 65.5501 69.3869 65.0303 69.3869 65.0303C69.3869 65.0303 68.8672 64.6405 68.8672 64.2507C68.8672 63.9908 68.8672 63.8609 68.8672 63.601C68.8672 62.9513 69.257 62.4316 69.9067 62.4316C70.5564 62.4316 71.0761 62.6914 71.0761 63.4711C71.0761 63.7309 71.0761 63.8609 71.2061 64.1208C71.2061 64.5106 70.8163 64.9004 70.8163 64.9004C70.8163 64.9004 71.336 65.2902 71.336 65.68C71.336 65.9399 71.336 66.0698 71.4659 66.4596C71.4659 67.2393 71.0761 67.759 70.2965 67.759ZM70.6863 65.9399C70.6863 65.5501 70.4264 65.4201 70.1666 65.4201C69.9067 65.4201 69.6468 65.68 69.7768 65.9399C69.7768 66.1998 69.7767 66.3297 69.9067 66.7195C69.9067 67.1093 70.1666 67.2393 70.4264 67.2393C70.6863 67.2393 70.9462 66.9794 70.8163 66.7195C70.6863 66.3297 70.6863 66.1998 70.6863 65.9399ZM70.4264 63.7309C70.4264 63.3411 70.1666 63.2112 69.9067 63.2112C69.6468 63.2112 69.5169 63.4711 69.5169 63.7309C69.5169 63.9908 69.5169 64.1208 69.5169 64.3806C69.5169 64.7704 69.7768 64.9004 70.0366 64.9004C70.2965 64.9004 70.4264 64.6405 70.4264 64.3806C70.4264 64.1208 70.4264 63.9908 70.4264 63.7309Z" fill="#B6B7BE"/>
<path d="M73.1569 67.4991C72.5072 67.6291 71.9875 67.2393 71.8575 66.5896C71.8575 66.3297 71.8575 66.1998 71.7276 66.0698C71.9875 66.0698 72.1174 66.0698 72.3773 65.9399C72.3773 66.1998 72.3773 66.1998 72.5072 66.4596C72.5072 66.8494 72.7671 66.9794 73.027 66.9794C73.2868 66.9794 73.4168 66.7195 73.4168 66.4596C73.2868 65.9399 73.2868 65.68 73.2868 65.1603C73.2868 64.9004 73.027 64.7704 72.897 64.7704C72.6372 64.7704 72.5072 65.0303 72.5072 65.2902C72.2473 65.2902 72.1174 65.2902 71.8575 65.4201C71.7276 64.3806 71.7276 63.7309 71.5977 62.6914C72.3773 62.5615 72.7671 62.5615 73.5467 62.4316C73.5467 62.6914 73.5467 62.8214 73.6767 63.0813C73.1569 63.2112 72.897 63.2112 72.3773 63.2112C72.3773 63.7309 72.3773 63.9908 72.5072 64.5106C72.6372 64.3806 72.897 64.2507 73.027 64.1208C73.6767 63.9908 73.9365 64.5106 74.0665 65.0303C74.1964 65.5501 74.1964 65.8099 74.1964 66.3297C74.3263 66.9794 73.9365 67.3692 73.1569 67.4991Z" fill="#B6B7BE"/>
<path d="M75.6245 68.2783C65.0995 69.9675 59.7721 69.9675 49.2471 68.2783C49.1172 68.6682 49.1172 68.928 49.1172 69.3178C59.7721 71.007 65.2294 71.007 75.7544 69.3178C75.7544 68.928 75.7544 68.6682 75.6245 68.2783Z" fill="#B6B7BE"/>
<path d="M32.8761 58.4023H92.1276L94.7264 53.9844L92.1276 49.4365H32.8761L30.2773 53.9844L32.8761 58.4023Z" fill="#F5F1E9"/>
<path d="M39.2408 53.2047C39.2408 53.9844 38.981 54.3742 38.3313 54.634L39.5007 56.3232H38.2013L37.1618 54.8939H36.5122V56.3232H35.4727V51.7754H37.1618C37.8115 51.7754 38.3313 51.9053 38.7211 52.1652C39.1109 52.2952 39.2408 52.685 39.2408 53.2047ZM38.0714 53.7245C38.2013 53.5945 38.2013 53.4646 38.2013 53.2047C38.2013 52.9449 38.0714 52.8149 37.9415 52.685C37.9415 52.555 37.6816 52.555 37.4217 52.555H36.6421V53.8544H37.4217C37.6816 53.8544 37.9415 53.8544 38.0714 53.7245Z" fill="#B6B7BE"/>
<path d="M44.6977 51.6455V52.5551H42.4887V53.4647H44.5677V54.3742H42.4887V55.2838H44.8276V56.1933H41.4492V51.6455H44.6977Z" fill="#B6B7BE"/>
<path d="M47.6871 52.5553C47.5572 52.6852 47.5572 52.6852 47.5572 52.8151C47.5572 52.9451 47.5572 53.075 47.6871 53.075C47.8171 53.2049 48.0769 53.2049 48.4668 53.3349C48.8566 53.4648 49.2464 53.5948 49.5063 53.8546C49.7661 54.1145 49.8961 54.3744 49.8961 54.7642C49.8961 55.154 49.7661 55.5438 49.3763 55.8037C49.1164 56.0636 48.7266 56.1935 48.2069 56.1935C47.4273 56.1935 46.7776 55.9336 46.2578 55.4139L46.9075 54.6343C47.4273 55.0241 47.8171 55.2839 48.2069 55.2839C48.3368 55.2839 48.5967 55.2839 48.5967 55.154C48.7266 55.0241 48.7266 55.0241 48.7266 54.7642C48.7266 54.6343 48.7266 54.5043 48.5967 54.3744C48.4668 54.2445 48.2069 54.2444 47.947 54.1145C47.4273 53.9846 47.0374 53.8546 46.7776 53.5948C46.5177 53.3349 46.3878 53.075 46.3878 52.6852C46.3878 52.2954 46.5177 51.9056 46.9075 51.6457C47.1674 51.3858 47.5572 51.2559 48.0769 51.2559C48.3368 51.2559 48.7266 51.2559 48.9865 51.3858C49.2464 51.5158 49.5063 51.6457 49.7661 51.7756L49.3763 52.9451C48.9865 52.6852 48.5967 52.5553 48.2069 52.5553C47.947 52.4253 47.8171 52.5553 47.6871 52.5553Z" fill="#B6B7BE"/>
<path d="M53.794 52.5551V56.1933H52.7545V52.5551H51.4551V51.6455H55.0933V52.5551H53.794Z" fill="#B6B7BE"/>
<path d="M59.7712 56.1933L59.3814 55.1538H57.4323L57.0425 56.1933H55.873L57.8221 51.6455H58.8616L60.8107 56.1933H59.7712ZM58.3419 53.0748L57.8221 54.3742H58.9916L58.3419 53.0748Z" fill="#B6B7BE"/>
<path d="M63.4088 55.0239C63.5387 55.2838 63.7986 55.2838 64.0584 55.2838C64.3183 55.2838 64.5782 55.1539 64.7081 55.0239C64.8381 54.764 64.968 54.5042 64.968 54.1143V51.6455H66.0075V54.2443C66.0075 54.894 65.8776 55.4137 65.4878 55.8035C65.0979 56.1934 64.7081 56.3233 64.0584 56.3233C63.5387 56.3233 63.0189 56.1934 62.6291 55.8035C62.2393 55.4137 62.1094 54.894 62.1094 54.2443V51.6455H63.1489V54.1143C63.1489 54.5042 63.2788 54.894 63.4088 55.0239Z" fill="#B6B7BE"/>
<path d="M71.8561 53.2047C71.8561 53.9844 71.5962 54.3742 70.9465 54.634L72.116 56.3232H70.8166L69.7771 54.8939H69.1274V56.3232H68.0879V51.7754H69.7771C70.4268 51.7754 70.9465 51.9053 71.3363 52.1652C71.7261 52.2952 71.8561 52.685 71.8561 53.2047ZM70.6866 53.7245C70.8166 53.5945 70.8166 53.4646 70.8166 53.2047C70.8166 52.9449 70.6866 52.8149 70.5567 52.685C70.5567 52.555 70.2968 52.555 69.907 52.555H69.1274V53.8544H69.907C70.2968 53.8544 70.5567 53.8544 70.6866 53.7245Z" fill="#B6B7BE"/>
<path d="M77.1823 56.1933L76.7924 55.1538H74.8434L74.4536 56.1933H73.4141L75.3631 51.6455H76.4026L78.3517 56.1933H77.1823ZM75.7529 53.0748L75.2332 54.3742H76.4026L75.7529 53.0748Z" fill="#B6B7BE"/>
<path d="M83.0298 51.6455H84.0693V56.1933H83.0298L80.8208 53.3347V56.1933H79.7812V51.6455H80.6909L82.8997 54.6341V51.6455H83.0298Z" fill="#B6B7BE"/>
<path d="M88.0967 52.5551V56.1933H87.0572V52.5551H85.7578V51.6455H89.3961V52.5551H88.0967Z" fill="#B6B7BE"/>
<path d="M17.4121 30.3361C17.4121 30.0762 17.542 29.9463 17.8019 29.9463H22.8695C25.5982 29.9463 27.6772 32.1553 27.6772 34.754C27.6772 37.4827 25.4682 39.6916 22.8695 39.6916H20.1408V44.7592C20.1408 45.0191 19.8809 45.149 19.751 45.149H17.8019C17.542 45.149 17.4121 44.8891 17.4121 44.7592V30.3361ZM22.7396 36.9629C23.909 36.9629 24.9485 35.9234 24.9485 34.754C24.9485 33.5846 23.909 32.675 22.7396 32.675H20.2707V36.9629H22.7396Z" fill="#B6B7BE"/>
<path d="M38.9805 30.3361C38.9805 30.0762 39.1104 29.9463 39.3703 29.9463H41.4493C41.7092 29.9463 41.8391 30.0762 41.8391 30.3361V44.7592C41.8391 45.0191 41.5792 45.149 41.4493 45.149H39.3703C39.1104 45.149 38.9805 44.8891 38.9805 44.7592V30.3361Z" fill="#B6B7BE"/>
<path d="M53.0156 44.3694L59.5125 32.675V32.5451H54.0551C53.7952 32.5451 53.6653 32.2852 53.6653 32.1553V30.3361C53.6653 30.0762 53.7952 29.9463 54.0551 29.9463H63.1508C63.4106 29.9463 63.5406 30.0762 63.5406 30.3361V30.596L57.1736 42.5503H62.7609C63.0208 42.5503 63.1508 42.6802 63.1508 42.9401V44.7592C63.1508 45.0191 63.0208 45.149 62.7609 45.149H53.5354C53.2755 45.149 53.1456 44.8891 53.1456 44.7592V44.3694H53.0156Z" fill="#B6B7BE"/>
<path d="M73.2852 44.3694L79.782 32.675V32.5451H74.3247C74.0648 32.5451 73.9348 32.2852 73.9348 32.1553V30.3361C73.9348 30.0762 74.1947 29.9463 74.3247 29.9463H83.4203C83.6802 29.9463 83.8101 30.0762 83.8101 30.3361V30.596L77.4432 42.4203H83.0305C83.2903 42.4203 83.4203 42.5503 83.4203 42.8101V44.7592C83.4203 45.0191 83.2903 45.149 83.0305 45.149H73.8049C73.545 45.149 73.4151 44.8891 73.4151 44.7592V44.3694H73.2852Z" fill="#B6B7BE"/>
<path d="M93.1659 44.6293L99.9227 30.0763C99.9227 29.9464 100.053 29.8164 100.312 29.8164H100.572C100.832 29.8164 100.832 29.9464 100.962 30.0763L107.589 44.6293C107.719 44.8892 107.589 45.1491 107.199 45.1491H105.25C104.86 45.1491 104.73 45.0191 104.6 44.7593L103.561 42.4204H97.064L96.0245 44.7593C95.8946 45.0191 95.7647 45.1491 95.3749 45.1491H93.5557C93.1659 45.1491 93.036 44.8892 93.1659 44.6293ZM102.521 39.9516L100.312 35.1439L98.2335 39.9516H102.521Z" fill="#B6B7BE"/>
<path d="M54.7031 2.13917C58.7312 -0.0697672 63.6688 0.0601696 67.5669 2.39905L67.0472 3.30861C63.4089 1.09967 58.9911 0.969734 55.2229 3.04874L54.7031 2.13917Z" fill="#B6B7BE"/>
<path d="M55.3516 3.17905C58.9898 1.22998 63.4077 1.35992 66.916 3.43892L60.8089 13.3142L55.3516 3.17905Z" fill="#B6B7BE"/>
<path d="M63.7988 6.03705C64.1886 5.64724 64.1886 4.99755 63.7988 4.73767C63.409 4.34786 62.7593 4.34786 62.4994 4.73767C62.1096 5.12749 62.1096 5.77718 62.4994 6.03705C62.7593 6.42686 63.409 6.42686 63.7988 6.03705Z" fill="#F5F1E9"/>
<path d="M59.5117 5.90717C59.9015 5.51736 59.9015 4.86767 59.5117 4.60779C59.1218 4.21798 58.4722 4.21798 58.2123 4.60779C57.8225 4.9976 57.8225 5.64729 58.2123 5.90717C58.6021 6.29698 59.1218 6.29698 59.5117 5.90717Z" fill="#F5F1E9"/>
</g>
</g>
</g>
</g>
<defs>
<clipPath id="clip0_3_2868">
<rect width="125" height="71" fill="white" transform="translate(0 0.580078)"/>
</clipPath>
<clipPath id="clip1_3_2868">
<rect width="125" height="71" fill="white" transform="translate(0 0.580078)"/>
</clipPath>
<clipPath id="clip2_3_2868">
<rect width="125" height="71" fill="white" transform="translate(0 0.580078)"/>
</clipPath>
</defs>
</svg>
