<svg width="25" height="25" viewBox="0 0 25 25" fill="none" xmlns="http://www.w3.org/2000/svg">
<g clip-path="url(#clip0_3_3226)">
<path d="M18.5648 14.61C17.7115 14.61 16.9915 14.9167 16.4048 15.53C15.8181 16.1433 15.5248 16.8633 15.5248 17.69C15.5248 18.5167 15.8181 19.2233 16.4048 19.81C16.9915 20.3967 17.6981 20.69 18.5248 20.69C19.3515 20.69 20.0581 20.3967 20.6448 19.81C21.2315 19.2233 21.5248 18.5167 21.5248 17.69C21.5248 16.8633 21.2315 16.1433 20.6448 15.53C20.0581 14.9167 19.3648 14.61 18.5648 14.61ZM18.5648 19.17C18.1381 19.17 17.7781 19.0233 17.4848 18.73C17.1915 18.4367 17.0448 18.0767 17.0448 17.65C17.0448 17.2233 17.1915 16.8633 17.4848 16.57C17.7781 16.2767 18.1248 16.13 18.5248 16.13C18.9248 16.13 19.2715 16.2767 19.5648 16.57C19.8581 16.8633 20.0048 17.2233 20.0048 17.65C20.0048 18.0767 19.8581 18.4367 19.5648 18.73C19.2715 19.0233 18.9381 19.17 18.5648 19.17ZM8.16478 14.61C7.36479 14.61 6.67145 14.9167 6.08478 15.53C5.49812 16.1433 5.20478 16.8633 5.20478 17.69C5.20478 18.5167 5.49812 19.2233 6.08478 19.81C6.67145 20.3967 7.37812 20.69 8.20478 20.69C9.03145 20.69 9.73812 20.3967 10.3248 19.81C10.9115 19.2233 11.2048 18.5167 11.2048 17.69C11.2048 16.8633 10.9115 16.1433 10.3248 15.53C9.73812 14.9167 9.01812 14.61 8.16478 14.61ZM8.16478 19.17C7.79145 19.17 7.44479 19.0233 7.12478 18.73C6.80478 18.4367 6.64478 18.0767 6.64478 17.65C6.64478 17.2233 6.80478 16.8633 7.12478 16.57C7.44479 16.2767 7.80478 16.13 8.20478 16.13C8.60478 16.13 8.95145 16.2767 9.24479 16.57C9.53812 16.8633 9.68478 17.2233 9.68478 17.65C9.68478 18.0767 9.53812 18.4367 9.24479 18.73C8.95145 19.0233 8.59145 19.17 8.16478 19.17ZM20.5648 5.97C20.4048 5.70334 20.1915 5.57 19.9248 5.57H15.9248V7.09H19.4448L21.5248 11.17L22.8048 10.53L20.5648 5.97ZM10.5648 16.93H16.2448V18.45H10.5648V16.93ZM5.92479 16.93H3.28479C3.07145 16.93 2.89812 17.01 2.76479 17.17C2.63145 17.33 2.56479 17.5033 2.56479 17.69C2.56479 17.8767 2.63145 18.05 2.76479 18.21C2.89812 18.37 3.07145 18.45 3.28479 18.45H5.92479C6.13812 18.45 6.31145 18.37 6.44479 18.21C6.57812 18.05 6.64478 17.8767 6.64478 17.69C6.64478 17.5033 6.57812 17.33 6.44479 17.17C6.31145 17.01 6.13812 16.93 5.92479 16.93ZM24.2448 12.29L22.7248 10.37C22.6181 10.21 22.4315 10.13 22.1648 10.13H16.6448V4.77C16.6448 4.61 16.5781 4.45 16.4448 4.29C16.3115 4.13 16.1381 4.05 15.9248 4.05H3.28479C3.07145 4.05 2.89812 4.13 2.76479 4.29C2.63145 4.45 2.56479 4.62334 2.56479 4.81C2.56479 4.99667 2.63145 5.17 2.76479 5.33C2.89812 5.49 3.07145 5.57 3.28479 5.57H15.1248V10.85C15.1248 11.0633 15.2048 11.25 15.3648 11.41C15.5248 11.57 15.7115 11.65 15.9248 11.65H21.7648L22.8848 13.01V16.93H20.8048C20.5915 16.93 20.4048 17.01 20.2448 17.17C20.0848 17.33 20.0048 17.5033 20.0048 17.69C20.0048 17.8767 20.0848 18.05 20.2448 18.21C20.4048 18.37 20.5915 18.45 20.8048 18.45H23.6848C23.8448 18.45 24.0048 18.37 24.1648 18.21C24.3248 18.05 24.4048 17.8633 24.4048 17.65V12.77C24.4048 12.61 24.3515 12.45 24.2448 12.29ZM5.84479 13.09H2.40479C2.19145 13.09 2.00479 13.17 1.84479 13.33C1.68479 13.49 1.60479 13.6767 1.60479 13.89C1.60479 14.1033 1.68479 14.2767 1.84479 14.41C2.00479 14.5433 2.19145 14.61 2.40479 14.61H5.84479C6.05812 14.61 6.24478 14.5433 6.40479 14.41C6.56479 14.2767 6.64478 14.1033 6.64478 13.89C6.64478 13.6767 6.56479 13.49 6.40479 13.33C6.24478 13.17 6.05812 13.09 5.84479 13.09ZM7.60478 10.13H1.12479C0.964785 10.13 0.804785 10.1967 0.644785 10.33C0.484785 10.4633 0.404785 10.6367 0.404785 10.85C0.404785 11.0633 0.484785 11.25 0.644785 11.41C0.804785 11.57 0.964785 11.65 1.12479 11.65H7.60478C7.81812 11.65 8.00479 11.57 8.16478 11.41C8.32478 11.25 8.40479 11.0633 8.40479 10.85C8.40479 10.6367 8.32478 10.4633 8.16478 10.33C8.00479 10.1967 7.81812 10.13 7.60478 10.13ZM8.88478 7.17H2.40479C2.19145 7.17 2.00479 7.23667 1.84479 7.37C1.68479 7.50334 1.60479 7.67667 1.60479 7.89C1.60479 8.10334 1.68479 8.29 1.84479 8.45C2.00479 8.61 2.19145 8.69 2.40479 8.69H8.88478C9.04478 8.69 9.20479 8.61 9.36479 8.45C9.52479 8.29 9.60478 8.10334 9.60478 7.89C9.60478 7.67667 9.52479 7.50334 9.36479 7.37C9.20479 7.23667 9.04478 7.17 8.88478 7.17Z" fill="#EE284B"/>
</g>
<defs>
<clipPath id="clip0_3_3226">
<rect width="24.81" height="24" fill="white" transform="matrix(1 0 0 -1 0 24.37)"/>
</clipPath>
</defs>
</svg>
