<svg width="16" height="11" viewBox="0 0 16 11" fill="none" xmlns="http://www.w3.org/2000/svg">
<path d="M9.14596 2.23828C8.99101 2.08333 8.91354 1.90625 8.91354 1.70703C8.91354 1.48568 8.99101 1.28646 9.14596 1.10938L9.71041 0.578125C9.86536 0.401042 10.0424 0.3125 10.2417 0.3125C10.463 0.3125 10.6512 0.401042 10.8061 0.578125L15.3217 5.06055C15.4767 5.21549 15.5542 5.40365 15.5542 5.625C15.5542 5.84635 15.4767 6.03451 15.3217 6.18945L10.8061 10.6719C10.6512 10.849 10.463 10.9375 10.2417 10.9375C10.0424 10.9375 9.86536 10.849 9.71041 10.6719L9.14596 10.1406C8.99101 9.96354 8.91354 9.77539 8.91354 9.57617C8.91354 9.35482 8.99101 9.16667 9.14596 9.01172L11.3042 6.82031H1.47604C1.25468 6.82031 1.06653 6.74284 0.911582 6.58789C0.756634 6.43294 0.67916 6.24479 0.67916 6.02344V5.22656C0.67916 5.00521 0.756634 4.81706 0.911582 4.66211C1.06653 4.50716 1.25468 4.42969 1.47604 4.42969H11.3042L9.14596 2.23828Z" fill="white"/>
</svg>
