<svg width="56" height="56" viewBox="0 0 56 56" fill="none" xmlns="http://www.w3.org/2000/svg">
<path d="M54.0934 26.6299V23.3299C54.0934 21.2521 53.3601 19.5105 51.8934 18.1049C50.4268 16.6993 48.7156 15.9966 46.7601 15.9966H35.3934C34.2934 15.9966 33.2545 16.241 32.2768 16.7299L32.4601 15.2632H33.9268C34.1712 15.2632 34.3851 15.2021 34.5684 15.0799C34.7518 14.9577 34.8434 14.7743 34.8434 14.5299V12.1466C34.8434 11.1688 34.5073 10.3743 33.8351 9.76323C33.1629 9.15212 32.399 8.84657 31.5434 8.84657H23.8434V1.8799C23.8434 1.75768 23.7518 1.6049 23.5684 1.42157C23.3851 1.23823 23.2323 1.14656 23.1101 1.14656H19.9934C19.749 1.14656 19.5656 1.23823 19.4434 1.42157C19.3212 1.6049 19.2601 1.75768 19.2601 1.8799V8.84657H11.5601C10.7045 8.84657 9.94065 9.15212 9.26842 9.76323C8.5962 10.3743 8.26009 11.1688 8.26009 12.1466V14.5299C8.26009 14.7743 8.35176 14.9577 8.53509 15.0799C8.71842 15.2021 8.8712 15.2632 8.99342 15.2632H10.6434L11.5601 28.6466H11.1934C8.38231 28.6466 5.96842 29.6549 3.95176 31.6716C1.93509 33.6882 0.926758 36.0716 0.926758 38.8216C0.926758 41.5716 1.84342 43.9243 3.67676 45.8799L1.11009 50.2799C0.987869 50.5243 1.01842 50.7688 1.20176 51.0132C1.38509 51.2577 1.66009 51.3799 2.02676 51.3799L5.14342 50.6466L6.24342 53.7632C6.24342 54.0077 6.42676 54.191 6.79342 54.3132H6.97676C7.2212 54.3132 7.40454 54.191 7.52676 53.9466L10.2768 48.9966H11.9268L14.8601 53.9466C14.9823 54.191 15.1656 54.3132 15.4101 54.3132H15.5934C15.8379 54.191 16.0212 54.0077 16.1434 53.7632L17.2434 50.6466L20.3601 51.3799C20.7268 51.3799 21.0018 51.2577 21.1851 51.0132C21.3684 50.7688 21.3379 50.5243 21.0934 50.2799L18.5268 45.8799C19.0156 45.391 19.3823 44.9021 19.6268 44.4132H28.2434C28.4879 45.1466 28.9156 45.7577 29.5268 46.2466C30.1379 46.7355 30.8101 46.9799 31.5434 46.9799H50.6101C51.5879 46.9799 52.4129 46.6438 53.0851 45.9716C53.7573 45.2993 54.0934 44.4743 54.0934 43.4966V39.6466C54.0934 39.4021 54.0018 39.2188 53.8184 39.0966C53.6351 38.9743 53.4823 38.9132 53.3601 38.9132H53.1768C53.7879 38.1799 54.0934 37.3243 54.0934 36.3466C54.0934 35.0021 53.5434 33.9021 52.4434 33.0466C53.5434 32.3132 54.0934 31.2743 54.0934 29.9299C54.0934 28.9521 53.7879 28.0966 53.1768 27.3632H53.3601C53.4823 27.3632 53.6351 27.2716 53.8184 27.0882C54.0018 26.9049 54.0934 26.7521 54.0934 26.6299ZM46.7601 17.4632C48.349 17.4632 49.724 18.0438 50.8851 19.2049C52.0462 20.366 52.6268 21.741 52.6268 23.3299V25.8966H29.5268V23.3299C29.5268 21.741 30.1073 20.366 31.2684 19.2049C32.4295 18.0438 33.8045 17.4632 35.3934 17.4632H46.7601ZM38.6934 27.3632L36.3101 29.7466L33.9268 27.3632H38.6934ZM20.7268 2.61323H22.3768V8.84657H20.7268V2.61323ZM9.72676 12.1466C9.72676 11.6577 9.91009 11.2299 10.2768 10.8632C10.6434 10.4966 11.0712 10.3132 11.5601 10.3132H31.5434C32.0323 10.3132 32.4295 10.4966 32.7351 10.8632C33.0406 11.2299 33.1934 11.6577 33.1934 12.1466V13.7966H9.72676V12.1466ZM6.97676 51.7466L6.42676 49.5466C6.18231 49.1799 5.87676 48.9966 5.51009 48.9966L3.31009 49.5466L4.77676 46.7966C5.99898 47.7743 7.34342 48.4466 8.81009 48.8132L6.97676 51.7466ZM2.39342 38.9132C2.39342 36.4688 3.24898 34.391 4.96009 32.6799C6.6712 30.9688 8.71842 30.1132 11.1018 30.1132C13.4851 30.1132 15.5323 30.9688 17.2434 32.6799C18.9545 34.391 19.8101 36.4382 19.8101 38.8216C19.8101 41.2049 18.9545 43.2521 17.2434 44.9632C15.5323 46.6743 13.4851 47.5299 11.1018 47.5299C8.71842 47.5299 6.6712 46.6743 4.96009 44.9632C3.24898 43.2521 2.39342 41.2355 2.39342 38.9132ZM16.8768 48.9966C16.3879 48.9966 16.0823 49.1799 15.9601 49.5466L15.2268 51.7466L13.5768 48.8132C15.0434 48.4466 16.3268 47.7743 17.4268 46.7966L19.0768 49.5466L16.8768 48.9966ZM13.0268 28.8299L12.2934 15.2632H30.8101L30.6268 17.6466C29.8934 18.3799 29.2823 19.2355 28.7934 20.2132C28.3045 21.191 28.0601 22.2299 28.0601 23.3299V26.6299C28.0601 26.7521 28.1518 26.9049 28.3351 27.0882C28.5184 27.2716 28.6712 27.3632 28.7934 27.3632H28.9768C28.3656 28.0966 28.0601 28.9521 28.0601 29.9299C28.0601 31.2743 28.6101 32.3132 29.7101 33.0466C28.6101 33.9021 28.0601 35.0021 28.0601 36.3466C28.0601 37.3243 28.3656 38.1799 28.9768 38.9132H28.7934C28.6712 38.9132 28.5184 38.9743 28.3351 39.0966C28.1518 39.2188 28.0601 39.4021 28.0601 39.6466V42.9466H20.5434C21.0323 41.6021 21.2768 40.2577 21.2768 38.9132C21.2768 36.4688 20.5129 34.2993 18.9851 32.4049C17.4573 30.5105 15.4712 29.3188 13.0268 28.8299ZM52.6268 43.4966C52.6268 43.9855 52.4129 44.4438 51.9851 44.8716C51.5573 45.2993 51.099 45.5132 50.6101 45.5132H31.5434C31.0545 45.5132 30.5962 45.2993 30.1684 44.8716C29.7406 44.4438 29.5268 43.9855 29.5268 43.4966V40.3799H52.6268V43.4966ZM52.6268 36.3466C52.6268 37.0799 52.3518 37.691 51.8018 38.1799C51.2518 38.6688 50.6712 38.9132 50.0601 38.9132H32.0934C31.3601 38.9132 30.749 38.6688 30.2601 38.1799C29.7712 37.691 29.5268 37.0799 29.5268 36.3466C29.5268 35.6132 29.7712 35.0021 30.2601 34.5132C30.749 34.0243 31.3601 33.7799 32.0934 33.7799H36.6768L40.5268 37.8132C40.649 37.9355 40.8323 37.9966 41.0768 37.9966C41.3212 37.9966 41.5045 37.9355 41.6268 37.8132L45.4768 33.7799H50.0601C50.6712 33.7799 51.2518 34.0243 51.8018 34.5132C52.3518 35.0021 52.6268 35.6132 52.6268 36.3466ZM38.6934 33.7799H43.4601L41.0768 36.1632L38.6934 33.7799ZM52.6268 29.9299C52.6268 30.541 52.3518 31.091 51.8018 31.5799C51.2518 32.0688 50.6712 32.3132 50.0601 32.3132H32.0934C31.3601 32.3132 30.749 32.0688 30.2601 31.5799C29.7712 31.091 29.5268 30.5105 29.5268 29.8382C29.5268 29.166 29.7406 28.616 30.1684 28.1882C30.5962 27.7605 31.1156 27.4855 31.7268 27.3632L35.7601 31.2132C35.8823 31.3355 36.0351 31.3966 36.2184 31.3966C36.4018 31.3966 36.6156 31.3355 36.8601 31.2132L40.7101 27.3632H50.0601C50.6712 27.3632 51.2518 27.6077 51.8018 28.0966C52.3518 28.5855 52.6268 29.1966 52.6268 29.9299ZM11.1934 31.3966C9.11565 31.3966 7.34342 32.1299 5.87676 33.5966C4.41009 35.0632 3.67676 36.8049 3.67676 38.8216C3.67676 40.8382 4.41009 42.5799 5.87676 44.0466C7.34342 45.5132 9.11565 46.2466 11.1934 46.2466C13.2712 46.2466 15.0129 45.5132 16.4184 44.0466C17.824 42.5799 18.5268 40.8382 18.5268 38.8216C18.5268 36.8049 17.824 35.0632 16.4184 33.5966C15.0129 32.1299 13.2712 31.3966 11.1934 31.3966ZM11.1934 44.7799C9.48231 44.7799 8.07676 44.1993 6.97676 43.0382C5.87676 41.8771 5.32676 40.4716 5.32676 38.8216C5.32676 37.1716 5.87676 35.766 6.97676 34.6049C8.07676 33.4438 9.45176 32.8632 11.1018 32.8632C12.7518 32.8632 14.1573 33.4438 15.3184 34.6049C16.4795 35.766 17.0601 37.1716 17.0601 38.8216C17.0601 40.4716 16.4795 41.8771 15.3184 43.0382C14.1573 44.1993 12.7823 44.7799 11.1934 44.7799ZM14.6768 36.1632C14.799 36.2855 14.8601 36.4382 14.8601 36.6216C14.8601 36.8049 14.799 37.0188 14.6768 37.2632L10.0934 41.8466C9.84898 41.9688 9.66565 42.0299 9.54342 42.0299C9.29898 42.0299 9.11565 41.9688 8.99342 41.8466L6.79342 39.6466C6.6712 39.5243 6.61009 39.341 6.61009 39.0966C6.61009 38.8521 6.70176 38.6688 6.88509 38.5466C7.06842 38.4243 7.25176 38.3632 7.43509 38.3632C7.61842 38.3632 7.7712 38.4243 7.89342 38.5466L9.54342 40.1966L13.5768 36.1632C13.8212 36.041 14.0351 35.9799 14.2184 35.9799C14.4018 35.9799 14.5545 36.041 14.6768 36.1632ZM44.3768 20.0299C44.3768 19.7855 44.4684 19.5716 44.6518 19.3882C44.8351 19.2049 45.049 19.1132 45.2934 19.1132C45.5379 19.1132 45.7518 19.2049 45.9351 19.3882C46.1184 19.5716 46.2101 19.7855 46.2101 20.0299C46.2101 20.2743 46.1184 20.4882 45.9351 20.6716C45.7518 20.8549 45.5379 20.9466 45.2934 20.9466C45.049 20.9466 44.8351 20.8549 44.6518 20.6716C44.4684 20.4882 44.3768 20.2743 44.3768 20.0299ZM42.3601 23.3299C42.3601 23.0855 42.4518 22.8716 42.6351 22.6882C42.8184 22.5049 43.0323 22.4132 43.2768 22.4132C43.5212 22.4132 43.7045 22.5049 43.8268 22.6882C43.949 22.8716 44.0101 23.0855 44.0101 23.3299C44.0101 23.5743 43.949 23.7577 43.8268 23.8799C43.7045 24.0021 43.5212 24.0632 43.2768 24.0632C43.0323 24.0632 42.8184 24.0021 42.6351 23.8799C42.4518 23.7577 42.3601 23.5743 42.3601 23.3299ZM46.5768 23.3299C46.5768 23.0855 46.6684 22.8716 46.8518 22.6882C47.0351 22.5049 47.249 22.4132 47.4934 22.4132C47.7379 22.4132 47.9518 22.5049 48.1351 22.6882C48.3184 22.8716 48.4101 23.0855 48.4101 23.3299C48.4101 23.5743 48.3184 23.7577 48.1351 23.8799C47.9518 24.0021 47.7379 24.0632 47.4934 24.0632C47.249 24.0632 47.0351 24.0021 46.8518 23.8799C46.6684 23.7577 46.5768 23.5743 46.5768 23.3299ZM33.7434 23.3299C33.7434 23.0855 33.8351 22.8716 34.0184 22.6882C34.2018 22.5049 34.4156 22.4132 34.6601 22.4132C34.9045 22.4132 35.1184 22.5049 35.3018 22.6882C35.4851 22.8716 35.5768 23.0855 35.5768 23.3299C35.5768 23.5743 35.4851 23.7577 35.3018 23.8799C35.1184 24.0021 34.9045 24.0632 34.6601 24.0632C34.4156 24.0632 34.2018 24.0021 34.0184 23.8799C33.8351 23.7577 33.7434 23.5743 33.7434 23.3299ZM35.9434 20.0299C35.9434 19.7855 36.0351 19.5716 36.2184 19.3882C36.4018 19.2049 36.6156 19.1132 36.8601 19.1132C37.1045 19.1132 37.2879 19.2049 37.4101 19.3882C37.5323 19.5716 37.5934 19.7855 37.5934 20.0299C37.5934 20.2743 37.5323 20.4882 37.4101 20.6716C37.2879 20.8549 37.1045 20.9466 36.8601 20.9466C36.6156 20.9466 36.4018 20.8549 36.2184 20.6716C36.0351 20.4882 35.9434 20.2743 35.9434 20.0299ZM38.1434 23.3299C38.1434 23.0855 38.2045 22.8716 38.3268 22.6882C38.449 22.5049 38.6323 22.4132 38.8768 22.4132C39.1212 22.4132 39.3351 22.5049 39.5184 22.6882C39.7018 22.8716 39.7934 23.0855 39.7934 23.3299C39.7934 23.5743 39.7018 23.7577 39.5184 23.8799C39.3351 24.0021 39.1212 24.0632 38.8768 24.0632C38.6323 24.0632 38.449 24.0021 38.3268 23.8799C38.2045 23.7577 38.1434 23.5743 38.1434 23.3299ZM40.1601 20.0299C40.1601 19.7855 40.2518 19.5716 40.4351 19.3882C40.6184 19.2049 40.8323 19.1132 41.0768 19.1132C41.3212 19.1132 41.5351 19.2049 41.7184 19.3882C41.9018 19.5716 41.9934 19.7855 41.9934 20.0299C41.9934 20.2743 41.9018 20.4882 41.7184 20.6716C41.5351 20.8549 41.3212 20.9466 41.0768 20.9466C40.8323 20.9466 40.6184 20.8549 40.4351 20.6716C40.2518 20.4882 40.1601 20.2743 40.1601 20.0299Z" fill="#FFC222"/>
</svg>
