<svg width="25" height="25" viewBox="0 0 25 25" fill="none" xmlns="http://www.w3.org/2000/svg">
<g clip-path="url(#clip0_3_3358)">
<path d="M18.5648 15.0401C17.7115 15.0401 16.9915 15.3468 16.4048 15.9601C15.8181 16.5735 15.5248 17.2935 15.5248 18.1201C15.5248 18.9468 15.8181 19.6535 16.4048 20.2401C16.9915 20.8268 17.6981 21.1201 18.5248 21.1201C19.3515 21.1201 20.0581 20.8268 20.6448 20.2401C21.2315 19.6535 21.5248 18.9468 21.5248 18.1201C21.5248 17.2935 21.2315 16.5735 20.6448 15.9601C20.0581 15.3468 19.3648 15.0401 18.5648 15.0401ZM18.5648 19.6001C18.1381 19.6001 17.7781 19.4535 17.4848 19.1601C17.1915 18.8668 17.0448 18.5068 17.0448 18.0801C17.0448 17.6535 17.1915 17.2935 17.4848 17.0001C17.7781 16.7068 18.1248 16.5601 18.5248 16.5601C18.9248 16.5601 19.2715 16.7068 19.5648 17.0001C19.8581 17.2935 20.0048 17.6535 20.0048 18.0801C20.0048 18.5068 19.8581 18.8668 19.5648 19.1601C19.2715 19.4535 18.9381 19.6001 18.5648 19.6001ZM8.16478 15.0401C7.36479 15.0401 6.67145 15.3468 6.08478 15.9601C5.49812 16.5735 5.20478 17.2935 5.20478 18.1201C5.20478 18.9468 5.49812 19.6535 6.08478 20.2401C6.67145 20.8268 7.37812 21.1201 8.20478 21.1201C9.03145 21.1201 9.73812 20.8268 10.3248 20.2401C10.9115 19.6535 11.2048 18.9468 11.2048 18.1201C11.2048 17.2935 10.9115 16.5735 10.3248 15.9601C9.73812 15.3468 9.01812 15.0401 8.16478 15.0401ZM8.16478 19.6001C7.79145 19.6001 7.44479 19.4535 7.12478 19.1601C6.80478 18.8668 6.64478 18.5068 6.64478 18.0801C6.64478 17.6535 6.80478 17.2935 7.12478 17.0001C7.44479 16.7068 7.80478 16.5601 8.20478 16.5601C8.60478 16.5601 8.95145 16.7068 9.24479 17.0001C9.53812 17.2935 9.68478 17.6535 9.68478 18.0801C9.68478 18.5068 9.53812 18.8668 9.24479 19.1601C8.95145 19.4535 8.59145 19.6001 8.16478 19.6001ZM20.5648 6.40012C20.4048 6.13345 20.1915 6.00012 19.9248 6.00012H15.9248V7.52012H19.4448L21.5248 11.6001L22.8048 10.9601L20.5648 6.40012ZM10.5648 17.3601H16.2448V18.8801H10.5648V17.3601ZM5.92479 17.3601H3.28479C3.07145 17.3601 2.89812 17.4401 2.76479 17.6001C2.63145 17.7601 2.56479 17.9335 2.56479 18.1201C2.56479 18.3068 2.63145 18.4801 2.76479 18.6401C2.89812 18.8001 3.07145 18.8801 3.28479 18.8801H5.92479C6.13812 18.8801 6.31145 18.8001 6.44479 18.6401C6.57812 18.4801 6.64478 18.3068 6.64478 18.1201C6.64478 17.9335 6.57812 17.7601 6.44479 17.6001C6.31145 17.4401 6.13812 17.3601 5.92479 17.3601ZM24.2448 12.7201L22.7248 10.8001C22.6181 10.6401 22.4315 10.5601 22.1648 10.5601H16.6448V5.20012C16.6448 5.04012 16.5781 4.88012 16.4448 4.72012C16.3115 4.56012 16.1381 4.48012 15.9248 4.48012H3.28479C3.07145 4.48012 2.89812 4.56012 2.76479 4.72012C2.63145 4.88012 2.56479 5.05345 2.56479 5.24012C2.56479 5.42678 2.63145 5.60012 2.76479 5.76012C2.89812 5.92012 3.07145 6.00012 3.28479 6.00012H15.1248V11.2801C15.1248 11.4935 15.2048 11.6801 15.3648 11.8401C15.5248 12.0001 15.7115 12.0801 15.9248 12.0801H21.7648L22.8848 13.4401V17.3601H20.8048C20.5915 17.3601 20.4048 17.4401 20.2448 17.6001C20.0848 17.7601 20.0048 17.9335 20.0048 18.1201C20.0048 18.3068 20.0848 18.4801 20.2448 18.6401C20.4048 18.8001 20.5915 18.8801 20.8048 18.8801H23.6848C23.8448 18.8801 24.0048 18.8001 24.1648 18.6401C24.3248 18.4801 24.4048 18.2935 24.4048 18.0801V13.2001C24.4048 13.0401 24.3515 12.8801 24.2448 12.7201ZM5.84479 13.5201H2.40479C2.19145 13.5201 2.00479 13.6001 1.84479 13.7601C1.68479 13.9201 1.60479 14.1068 1.60479 14.3201C1.60479 14.5335 1.68479 14.7068 1.84479 14.8401C2.00479 14.9735 2.19145 15.0401 2.40479 15.0401H5.84479C6.05812 15.0401 6.24478 14.9735 6.40479 14.8401C6.56479 14.7068 6.64478 14.5335 6.64478 14.3201C6.64478 14.1068 6.56479 13.9201 6.40479 13.7601C6.24478 13.6001 6.05812 13.5201 5.84479 13.5201ZM7.60478 10.5601H1.12479C0.964785 10.5601 0.804785 10.6268 0.644785 10.7601C0.484785 10.8935 0.404785 11.0668 0.404785 11.2801C0.404785 11.4935 0.484785 11.6801 0.644785 11.8401C0.804785 12.0001 0.964785 12.0801 1.12479 12.0801H7.60478C7.81812 12.0801 8.00479 12.0001 8.16478 11.8401C8.32478 11.6801 8.40479 11.4935 8.40479 11.2801C8.40479 11.0668 8.32478 10.8935 8.16478 10.7601C8.00479 10.6268 7.81812 10.5601 7.60478 10.5601ZM8.88478 7.60012H2.40479C2.19145 7.60012 2.00479 7.66678 1.84479 7.80012C1.68479 7.93345 1.60479 8.10678 1.60479 8.32012C1.60479 8.53345 1.68479 8.72012 1.84479 8.88012C2.00479 9.04012 2.19145 9.12012 2.40479 9.12012H8.88478C9.04478 9.12012 9.20479 9.04012 9.36479 8.88012C9.52479 8.72012 9.60478 8.53345 9.60478 8.32012C9.60478 8.10678 9.52479 7.93345 9.36479 7.80012C9.20479 7.66678 9.04478 7.60012 8.88478 7.60012Z" fill="white"/>
</g>
<defs>
<clipPath id="clip0_3_3358">
<rect width="24.81" height="24" fill="white" transform="matrix(1 0 0 -1 0 24.7998)"/>
</clipPath>
</defs>
</svg>
