<svg width="53" height="53" viewBox="0 0 53 53" fill="none" xmlns="http://www.w3.org/2000/svg">
<path d="M15.7633 7.57331L18.5366 9.82665L17.6699 13.2933C17.5544 13.7555 17.6699 14.16 18.0166 14.5066C18.2477 14.6222 18.4788 14.68 18.7099 14.68C18.941 14.68 19.1144 14.6222 19.2299 14.5066L22.3499 12.6L25.2966 14.5066C25.6433 14.7378 26.0477 14.7089 26.5099 14.42C26.9722 14.1311 27.0877 13.7555 26.8566 13.2933L25.9899 9.82665L28.7633 7.57331C29.1099 7.22665 29.2255 6.8222 29.1099 6.35998C28.9944 5.89776 28.6477 5.66665 28.0699 5.66665L24.6033 5.49332L23.3899 2.19998C23.1588 1.73776 22.8122 1.50665 22.3499 1.50665C21.7722 1.50665 21.4255 1.73776 21.3099 2.19998L19.9233 5.49332L16.4566 5.66665C15.9944 5.66665 15.6766 5.89776 15.5033 6.35998C15.3299 6.8222 15.4166 7.22665 15.7633 7.57331ZM20.4433 7.05331C20.9055 7.05331 21.1944 6.8222 21.3099 6.35998L22.3499 4.10665L23.2166 6.35998C23.3322 6.8222 23.621 7.05331 24.0833 7.05331L26.6833 7.22665L24.7766 8.78665C24.3144 9.13332 24.141 9.53776 24.2566 9.99998L24.9499 12.4266L22.8699 11.04C22.6388 10.9244 22.4366 10.8666 22.2633 10.8666C22.0899 10.8666 21.8877 10.9244 21.6566 11.04L19.5766 12.4266L20.2699 9.99998C20.3855 9.53776 20.2699 9.13332 19.9233 8.78665L17.8433 7.22665L20.4433 7.05331ZM8.82993 17.6266L11.7766 19.7066C12.2388 19.9378 12.6722 19.9089 13.0766 19.62C13.481 19.3311 13.6255 18.9555 13.5099 18.4933L12.6433 15.0266L15.4166 12.7733C15.7633 12.4266 15.8499 12.0222 15.6766 11.56C15.5033 11.0978 15.1855 10.8666 14.7233 10.8666L11.0833 10.6933L9.86993 7.39998C9.75437 6.8222 9.40771 6.53332 8.82993 6.53332C8.36771 6.53332 8.02104 6.8222 7.78993 7.39998L6.5766 10.6933L3.10993 10.8666C2.53215 10.8666 2.1566 11.0978 1.98326 11.56C1.80993 12.0222 1.95437 12.4266 2.4166 12.7733L5.18993 15.0266L4.14993 18.4933C4.03437 18.9555 4.20771 19.3022 4.66993 19.5333C4.90104 19.7644 5.10326 19.88 5.2766 19.88C5.44993 19.88 5.65215 19.8222 5.88326 19.7066L8.82993 17.6266ZM4.4966 12.4266L6.92326 12.2533C7.50104 12.2533 7.84771 12.0222 7.96326 11.56L8.82993 9.13332L9.6966 11.56C9.92771 12.0222 10.2744 12.2533 10.7366 12.2533L13.3366 12.4266L11.2566 13.9866C10.9099 14.2178 10.7944 14.5644 10.9099 15.0266L11.6033 17.4533L9.52326 16.0667C9.29215 15.9511 9.06104 15.8933 8.82993 15.8933C8.59882 15.8933 8.42549 15.9511 8.30993 16.0667L6.22993 17.4533L6.74993 15.0266C6.98104 14.5644 6.86548 14.2178 6.40326 13.9866L4.4966 12.4266ZM28.9366 11.56C28.7055 12.0222 28.821 12.4266 29.2833 12.7733L32.0566 15.0266L31.0166 18.4933C30.901 18.9555 31.0744 19.3022 31.5366 19.5333C31.6522 19.7644 31.8255 19.88 32.0566 19.88C32.2877 19.88 32.5188 19.8222 32.7499 19.7066L35.6966 17.6266L38.6433 19.7066C39.1055 19.9378 39.5388 19.9089 39.9433 19.62C40.3477 19.3311 40.4921 18.9555 40.3766 18.4933L39.3366 15.0266L42.1099 12.7733C42.5722 12.4266 42.7166 12.0222 42.5433 11.56C42.3699 11.0978 42.0522 10.8666 41.5899 10.8666L37.9499 10.6933L36.7366 7.39998C36.5055 6.8222 36.1588 6.53332 35.6966 6.53332C35.2344 6.53332 34.8877 6.8222 34.6566 7.39998L33.4433 10.6933L29.8033 10.8666C29.341 10.8666 29.0522 11.0978 28.9366 11.56ZM33.7899 12.2533C34.2522 12.2533 34.5988 12.0222 34.8299 11.56L35.6966 9.13332L36.5633 11.56C36.7944 12.0222 37.141 12.2533 37.6033 12.2533L40.0299 12.4266L38.1233 13.9866C37.7766 14.2178 37.661 14.5644 37.7766 15.0266L38.4699 17.4533L36.2166 16.0667C36.101 15.9511 35.9277 15.8933 35.6966 15.8933C35.4655 15.8933 35.2344 15.9511 35.0033 16.0667L32.9233 17.4533L33.6166 15.0266C33.7322 14.5644 33.6166 14.2178 33.2699 13.9866L31.3633 12.4266L33.7899 12.2533ZM41.4166 32.5333C39.9144 32.5333 38.4988 32.8511 37.1699 33.4866C35.841 34.1222 34.7144 35.0178 33.7899 36.1733C31.7099 34.0933 29.2833 32.7066 26.5099 32.0133C27.8966 31.2044 28.9944 30.1066 29.8033 28.72C30.6122 27.3333 31.0166 25.8311 31.0166 24.2133C31.0166 21.7866 30.1788 19.7355 28.5033 18.06C26.8277 16.3844 24.7766 15.5466 22.3499 15.5466C19.9233 15.5466 17.8433 16.3844 16.1099 18.06C14.3766 19.7355 13.5099 21.7866 13.5099 24.2133C13.5099 25.8311 13.9144 27.3333 14.7233 28.72C15.5322 30.1066 16.6299 31.2044 18.0166 32.0133C15.4744 32.7066 13.221 33.92 11.2566 35.6533C9.63882 37.04 8.3966 38.6289 7.52993 40.42C6.66326 42.2111 6.11437 44.1466 5.88326 46.2266C5.76771 46.4578 5.7966 46.66 5.96993 46.8333C6.14326 47.0066 6.34548 47.0933 6.5766 47.0933H33.0966C33.9055 48.48 35.061 49.6066 36.5633 50.4733C38.0655 51.34 39.6833 51.7733 41.4166 51.7733C44.0744 51.7733 46.3566 50.8489 48.2633 49C50.1699 47.1511 51.1233 44.8689 51.1233 42.1533C51.1233 39.4378 50.1699 37.1555 48.2633 35.3066C46.3566 33.4578 44.0744 32.5333 41.4166 32.5333ZM15.0699 24.2133C15.0699 22.2489 15.7922 20.5733 17.2366 19.1866C18.681 17.8 20.3855 17.1066 22.3499 17.1066C24.3144 17.1066 25.9899 17.8 27.3766 19.1866C28.7633 20.5733 29.4566 22.2489 29.4566 24.2133C29.4566 26.1778 28.7633 27.8533 27.3766 29.24C25.9899 30.6266 24.3144 31.32 22.3499 31.32C20.3855 31.32 18.681 30.6266 17.2366 29.24C15.7922 27.8533 15.0699 26.1778 15.0699 24.2133ZM7.6166 45.5333C8.19437 41.9511 9.86993 38.9755 12.6433 36.6066C15.4166 34.2378 18.6522 33.0533 22.3499 33.0533C24.3144 33.0533 26.221 33.4289 28.0699 34.18C29.9188 34.9311 31.5366 36.0578 32.9233 37.56C32.1144 38.9466 31.7099 40.5066 31.7099 42.24C31.7099 43.28 31.8833 44.3778 32.2299 45.5333H7.6166ZM41.4166 50.2133C39.221 50.2133 37.3144 49.4333 35.6966 47.8733C34.0788 46.3133 33.2699 44.4066 33.2699 42.1533C33.2699 39.9 34.0788 37.9933 35.6966 36.4333C37.3144 34.8733 39.221 34.0933 41.4166 34.0933C43.6122 34.0933 45.4899 34.8733 47.0499 36.4333C48.6099 37.9933 49.3899 39.9 49.3899 42.1533C49.3899 44.4066 48.6099 46.3133 47.0499 47.8733C45.4899 49.4333 43.6122 50.2133 41.4166 50.2133ZM46.9633 38.08C46.501 37.6178 45.981 37.3866 45.4033 37.3866C44.8255 37.3866 44.3633 37.6178 44.0166 38.08L40.2033 41.72L38.8166 40.3333C38.3544 39.9866 37.8344 39.8133 37.2566 39.8133C36.6788 39.8133 36.1877 40.0155 35.7833 40.42C35.3788 40.8244 35.1766 41.3155 35.1766 41.8933C35.1766 42.4711 35.4077 42.9911 35.8699 43.4533L38.6433 46.2266C39.1055 46.6889 39.6255 46.92 40.2033 46.92C40.781 46.92 41.301 46.6889 41.7633 46.2266L46.9633 41.0266C47.3099 40.5644 47.4833 40.0444 47.4833 39.4666C47.4833 38.8889 47.3099 38.4266 46.9633 38.08ZM45.7499 39.8133C45.4033 40.2755 44.7677 40.9111 43.8433 41.72L40.5499 45.1866C40.3188 45.4178 40.0877 45.4178 39.8566 45.1866L36.9099 42.24C36.6788 42.0089 36.6499 41.8066 36.8233 41.6333C36.9966 41.46 37.141 41.3733 37.2566 41.3733C37.3722 41.3733 37.4877 41.4311 37.6033 41.5466L39.6833 43.4533C39.7988 43.6844 39.9721 43.8 40.2033 43.8C40.4344 43.8 40.6077 43.6844 40.7233 43.4533L45.0566 39.12C45.1721 39.0044 45.2877 38.9466 45.4033 38.9466C45.5188 38.9466 45.6633 39.0333 45.8366 39.2066C46.0099 39.38 45.981 39.5822 45.7499 39.8133Z" fill="#FFC222"/>
</svg>
