<svg width="16" height="15" viewBox="0 0 16 15" fill="none" xmlns="http://www.w3.org/2000/svg">
<path d="M7.05425 0.852448C7.21831 0.524323 7.48263 0.36026 7.84722 0.36026C8.2118 0.36026 8.47612 0.524323 8.64019 0.852448L10.4175 4.46182L14.4097 5.06339C14.7743 5.09984 15.0113 5.29125 15.1207 5.6376C15.23 5.98396 15.1571 6.28474 14.9019 6.53995L12.0035 9.35635L12.6871 13.3485C12.7417 13.6949 12.6233 13.9683 12.3316 14.1689C12.0399 14.3876 11.7391 14.4149 11.4292 14.2509L7.84722 12.3915L4.26519 14.2509C3.95529 14.4332 3.65451 14.4149 3.36284 14.1962C3.07117 13.9774 2.95269 13.6949 3.00737 13.3485L3.69097 9.35635L0.792529 6.53995C0.537321 6.28474 0.464404 5.98396 0.573779 5.6376C0.683154 5.29125 0.920133 5.09984 1.28472 5.06339L5.2769 4.46182L7.05425 0.852448Z" fill="#FFC222"/>
</svg>
