<svg width="17" height="17" viewBox="0 0 17 17" fill="none" xmlns="http://www.w3.org/2000/svg">
<rect x="0.0900879" y="0.5" width="16" height="16" rx="8" fill="#212121"/>
<path d="M8.2568 13.144C7.6888 13.144 7.2168 13.024 6.8408 12.784C6.4728 12.544 6.1928 12.212 6.0008 11.788C5.8168 11.364 5.7248 10.876 5.7248 10.324V6.016C5.7248 5.448 5.8128 4.952 5.9888 4.528C6.1728 4.096 6.4488 3.76 6.8168 3.52C7.1928 3.28 7.6728 3.16 8.2568 3.16C8.8408 3.16 9.3168 3.28 9.6848 3.52C10.0608 3.76 10.3368 4.096 10.5128 4.528C10.6968 4.952 10.7888 5.448 10.7888 6.016V10.324C10.7888 10.876 10.6928 11.364 10.5008 11.788C10.3168 12.212 10.0368 12.544 9.6608 12.784C9.2928 13.024 8.8248 13.144 8.2568 13.144ZM8.2568 11.716C8.5048 11.716 8.6888 11.64 8.8088 11.488C8.9288 11.336 9.0088 11.152 9.0488 10.936C9.0888 10.72 9.1088 10.508 9.1088 10.3V6.04C9.1088 5.816 9.0888 5.596 9.0488 5.38C9.0168 5.156 8.9408 4.968 8.8208 4.816C8.7008 4.664 8.5128 4.588 8.2568 4.588C8.0008 4.588 7.8128 4.664 7.6928 4.816C7.5728 4.968 7.4928 5.156 7.4528 5.38C7.4208 5.596 7.4048 5.816 7.4048 6.04V10.3C7.4048 10.508 7.4248 10.72 7.4648 10.936C7.5128 11.152 7.5968 11.336 7.7168 11.488C7.8368 11.64 8.0168 11.716 8.2568 11.716Z" fill="white"/>
</svg>
